<svg xmlns="http://www.w3.org/2000/svg" version="1.1" xmlns:xlink="http://www.w3.org/1999/xlink" xmlns:svgjs="http://svgjs.dev/svgjs" viewBox="0 0 12.208286774465378 2.849330647245701"><g transform="matrix(1,0,0,1,0.4652031696826828,0.5083493525630186)"><rect width="12.208286774465378" height="12.208286774465378" x="-0.4652031696826828" y="-5.1878274161728575" fill="#1192dc"></rect><g><path d=" M 0.213 1.0335 Q 0.1635 1.0335 0.11850000000000001 1.0170000000000001 Q 0.0735 1.0005000000000002 0.045 0.9645000000000001 Q 0.0165 0.9285000000000001 0.0165 0.8730000000000001 Q 0.0165 0.8595000000000002 0.02325 0.8482500000000002 Q 0.03 0.8370000000000002 0.036000000000000004 0.8370000000000002 Q 0.048 0.8370000000000002 0.048 0.8730000000000001 Q 0.048 0.9240000000000002 0.0915 0.9525000000000001 Q 0.126 0.9750000000000001 0.1845 0.9750000000000001 Q 0.243 0.9750000000000001 0.306 0.9540000000000002 Q 0.369 0.9330000000000002 0.426 0.8940000000000001 Q 0.4935 0.8490000000000002 0.57675 0.7642500000000001 Q 0.66 0.6795000000000001 0.75 0.5790000000000002 Q 0.678 0.5715000000000001 0.60675 0.5625000000000001 Q 0.5355 0.5535000000000001 0.4635 0.5535000000000001 Q 0.41550000000000004 0.5535000000000001 0.3675 0.5632500000000001 Q 0.3195 0.5730000000000002 0.2805 0.6000000000000001 Q 0.2415 0.6270000000000001 0.222 0.6795000000000001 Q 0.2205 0.6855000000000001 0.21825 0.6930000000000002 Q 0.216 0.7005000000000001 0.216 0.7080000000000002 Q 0.216 0.7230000000000001 0.2235 0.7350000000000001 Q 0.2265 0.7440000000000001 0.2265 0.7455000000000002 Q 0.2265 0.7590000000000001 0.2145 0.7590000000000001 Q 0.20400000000000001 0.7590000000000001 0.198 0.7485000000000002 Q 0.183 0.7215000000000001 0.183 0.6795000000000001 Q 0.183 0.6000000000000001 0.21225 0.558 Q 0.2415 0.5160000000000001 0.291 0.5010000000000001 Q 0.3405 0.48600000000000015 0.3975 0.48600000000000015 Q 0.423 0.48600000000000015 0.45075 0.48825000000000013 Q 0.47850000000000004 0.49050000000000016 0.5055000000000001 0.4935000000000001 Q 0.5715 0.4995000000000001 0.642 0.5137500000000002 Q 0.7125 0.5280000000000001 0.783 0.5430000000000001 Q 0.861 0.4515000000000001 0.93675 0.35850000000000015 Q 1.0125 0.2655000000000002 1.0785 0.18225000000000013 Q 1.1445 0.09900000000000009 1.191 0.039000000000000146 Q 1.1925000000000001 0.034500000000000086 1.197 0.03300000000000014 Q 1.2 0.030000000000000138 1.2015 0.030000000000000138 Q 1.218 0.02100000000000013 1.2435 0.014250000000000096 Q 1.2690000000000001 0.007500000000000173 1.278 0.007500000000000173 Q 1.293 0.007500000000000173 1.293 0.024000000000000132 Q 1.293 0.02850000000000008 1.2855 0.04050000000000009 Q 1.2105000000000001 0.16800000000000015 1.1572500000000001 0.3015000000000001 Q 1.104 0.4350000000000001 1.0635000000000001 0.5760000000000001 L 1.0605 0.5865000000000001 Q 1.0695000000000001 0.5865000000000001 1.07925 0.5872500000000002 Q 1.089 0.5880000000000001 1.0965 0.5880000000000001 Q 1.161 0.5925000000000001 1.206 0.5745000000000001 Q 1.239 0.5625000000000001 1.2510000000000001 0.5400000000000001 Q 1.2555 0.5340000000000001 1.2585 0.5340000000000001 Q 1.266 0.5340000000000001 1.2690000000000001 0.5422500000000001 Q 1.272 0.5505000000000002 1.2675 0.558 Q 1.2510000000000001 0.5865000000000001 1.209 0.6000000000000001 Q 1.185 0.6105000000000002 1.15425 0.6135000000000002 Q 1.1235 0.6165000000000002 1.0905 0.6150000000000002 L 1.0815000000000001 0.6150000000000002 L 1.0635000000000001 0.6135000000000002 L 1.0545 0.6135000000000002 Q 1.032 0.6960000000000002 1.0230000000000001 0.7845000000000002 Q 1.0215 0.7920000000000001 1.0215 0.7987500000000002 Q 1.0215 0.8055000000000001 1.0215 0.8130000000000002 Q 1.0215 0.8985000000000002 1.068 0.8985000000000002 Q 1.098 0.8985000000000002 1.13925 0.8715000000000002 Q 1.1805 0.8445000000000001 1.22325 0.8055000000000001 Q 1.266 0.7665000000000002 1.3005 0.7282500000000002 Q 1.335 0.6900000000000002 1.3515 0.6675000000000002 Q 1.3545 0.6645000000000001 1.3605 0.6645000000000001 Q 1.3755 0.6645000000000001 1.3695 0.6810000000000002 Q 1.3665 0.6855000000000001 1.344 0.7162500000000002 Q 1.3215000000000001 0.7470000000000001 1.2825 0.7897500000000002 Q 1.2435 0.8325000000000001 1.191 0.8745000000000002 Q 1.149 0.9075000000000002 1.10775 0.9172500000000001 Q 1.0665 0.9270000000000002 1.0455 0.9270000000000002 Q 1.0035 0.9270000000000002 0.97875 0.8887500000000002 Q 0.9540000000000001 0.8505000000000001 0.9540000000000001 0.7905000000000001 Q 0.9540000000000001 0.7470000000000001 0.963 0.7005000000000001 Q 0.972 0.6540000000000001 0.984 0.6075000000000002 Q 0.9405 0.6030000000000002 0.8955000000000001 0.5977500000000001 Q 0.8505 0.5925000000000001 0.8055 0.5865000000000001 Q 0.7155 0.6960000000000002 0.62625 0.7912500000000001 Q 0.537 0.8865000000000002 0.459 0.9450000000000002 Q 0.4005 0.9870000000000001 0.33825 1.01025 Q 0.276 1.0335 0.213 1.0335 M 0.99 0.5790000000000002 Q 1.0170000000000001 0.47400000000000014 1.05375 0.3682500000000001 Q 1.0905 0.2625000000000002 1.1265 0.1755000000000001 L 1.1340000000000001 0.15750000000000008 Q 1.0695000000000001 0.24750000000000016 0.99225 0.34950000000000014 Q 0.915 0.4515000000000001 0.8355 0.5520000000000002 Q 0.8745 0.5595000000000001 0.9135 0.5662500000000001 Q 0.9525 0.5730000000000002 0.99 0.5790000000000002 M 1.732477294921875 1.0725000000000002 Q 1.693477294921875 1.0665000000000002 1.676977294921875 1.0350000000000001 Q 1.6604772949218751 1.0035 1.6604772949218751 0.9570000000000002 Q 1.6604772949218751 0.9015000000000002 1.676227294921875 0.8370000000000002 Q 1.691977294921875 0.7725000000000002 1.712977294921875 0.7155000000000001 Q 1.733977294921875 0.6585000000000001 1.745977294921875 0.6285000000000001 Q 1.711477294921875 0.6690000000000002 1.667227294921875 0.7170000000000001 Q 1.622977294921875 0.7650000000000001 1.574977294921875 0.8085000000000001 Q 1.526977294921875 0.8520000000000001 1.482727294921875 0.8797500000000001 Q 1.438477294921875 0.9075000000000002 1.405477294921875 0.9075000000000002 Q 1.381477294921875 0.9075000000000002 1.354477294921875 0.8932500000000001 Q 1.327477294921875 0.8790000000000001 1.310977294921875 0.8565000000000002 Q 1.288477294921875 0.8265000000000001 1.288477294921875 0.7950000000000002 Q 1.288477294921875 0.7545000000000002 1.316227294921875 0.7110000000000001 Q 1.343977294921875 0.6675000000000002 1.388227294921875 0.6262500000000002 Q 1.432477294921875 0.5850000000000002 1.482727294921875 0.5512500000000001 Q 1.532977294921875 0.5175000000000001 1.5787272949218751 0.49425000000000013 Q 1.624477294921875 0.47100000000000014 1.652977294921875 0.46350000000000013 Q 1.667977294921875 0.46050000000000013 1.6844772949218751 0.45750000000000013 Q 1.7009772949218749 0.4545000000000001 1.7189772949218751 0.4545000000000001 Q 1.741477294921875 0.4545000000000001 1.763977294921875 0.45975000000000016 Q 1.786477294921875 0.46500000000000014 1.8014772949218751 0.47700000000000015 L 1.807477294921875 0.48150000000000015 Q 1.843477294921875 0.39900000000000013 1.886977294921875 0.31425000000000014 Q 1.9304772949218751 0.22950000000000015 1.979977294921875 0.15900000000000014 Q 2.029477294921875 0.08850000000000013 2.084977294921875 0.04575000000000007 Q 2.140477294921875 0.0030000000000001137 2.200477294921875 0.0030000000000001137 Q 2.207977294921875 0.0030000000000001137 2.2154772949218753 0.003750000000000142 Q 2.222977294921875 0.0045000000000001705 2.228977294921875 0.006000000000000116 Q 2.266477294921875 0.013500000000000068 2.282227294921875 0.03225000000000011 Q 2.297977294921875 0.051000000000000156 2.297977294921875 0.07650000000000012 Q 2.297977294921875 0.09450000000000014 2.291227294921875 0.11475000000000013 Q 2.2844772949218752 0.13500000000000012 2.272477294921875 0.15450000000000008 Q 2.239477294921875 0.21300000000000008 2.186227294921875 0.27000000000000013 Q 2.132977294921875 0.3270000000000002 2.069977294921875 0.3802500000000001 Q 2.006977294921875 0.4335000000000001 1.944727294921875 0.48300000000000015 Q 1.882477294921875 0.5325000000000002 1.831477294921875 0.5760000000000001 Q 1.808977294921875 0.6285000000000001 1.786477294921875 0.6990000000000002 Q 1.763977294921875 0.7695000000000001 1.748977294921875 0.8190000000000002 Q 1.739977294921875 0.8550000000000001 1.734727294921875 0.8865000000000002 Q 1.729477294921875 0.9180000000000001 1.729477294921875 0.9450000000000002 Q 1.729477294921875 0.9945000000000002 1.747477294921875 1.0260000000000002 Q 1.762477294921875 1.0500000000000003 1.784977294921875 1.0500000000000003 Q 1.8014772949218751 1.0500000000000003 1.814977294921875 1.0380000000000003 Q 1.820977294921875 1.0350000000000001 1.826227294921875 1.0305000000000002 Q 1.831477294921875 1.0260000000000002 1.838977294921875 1.0215 Q 1.8479772949218751 1.0170000000000001 1.853977294921875 1.0170000000000001 Q 1.8644772949218749 1.0170000000000001 1.855477294921875 1.0335 Q 1.850977294921875 1.0380000000000003 1.844977294921875 1.04475 Q 1.838977294921875 1.0515 1.831477294921875 1.0590000000000002 Q 1.820977294921875 1.0665000000000002 1.799977294921875 1.0710000000000002 Q 1.7789772949218752 1.0755000000000001 1.757977294921875 1.0755000000000001 Q 1.751977294921875 1.0755000000000001 1.745227294921875 1.07475 Q 1.738477294921875 1.074 1.732477294921875 1.0725000000000002 M 1.8764772949218749 0.49050000000000016 Q 1.936477294921875 0.4500000000000001 2.006977294921875 0.3892500000000001 Q 2.077477294921875 0.3285000000000001 2.138977294921875 0.25875000000000015 Q 2.200477294921875 0.18900000000000017 2.233477294921875 0.1260000000000001 Q 2.252977294921875 0.09000000000000008 2.252977294921875 0.06900000000000017 Q 2.252977294921875 0.043500000000000094 2.230477294921875 0.043500000000000094 Q 2.209477294921875 0.043500000000000094 2.174977294921875 0.06750000000000012 Q 2.0744772949218753 0.14550000000000007 2.005477294921875 0.25275000000000014 Q 1.936477294921875 0.3600000000000001 1.8764772949218749 0.49050000000000016 M 1.363477294921875 0.8715000000000002 Q 1.370977294921875 0.8805000000000002 1.382977294921875 0.8805000000000002 Q 1.405477294921875 0.8805000000000002 1.436227294921875 0.8610000000000001 Q 1.466977294921875 0.8415000000000001 1.477477294921875 0.8310000000000002 Q 1.553977294921875 0.7695000000000001 1.631227294921875 0.6982500000000001 Q 1.708477294921875 0.6270000000000001 1.775977294921875 0.5550000000000002 Q 1.781977294921875 0.5415000000000001 1.786477294921875 0.52875 Q 1.790977294921875 0.5160000000000001 1.796977294921875 0.5040000000000001 Q 1.774477294921875 0.4950000000000001 1.744477294921875 0.4950000000000001 Q 1.6844772949218751 0.4950000000000001 1.612477294921875 0.5340000000000001 Q 1.540477294921875 0.5730000000000002 1.483477294921875 0.6255000000000002 Q 1.465477294921875 0.6405000000000001 1.434727294921875 0.6772500000000001 Q 1.403977294921875 0.7140000000000002 1.378477294921875 0.7575000000000002 Q 1.352977294921875 0.8010000000000002 1.352977294921875 0.8370000000000002 Q 1.352977294921875 0.8565000000000002 1.363477294921875 0.8715000000000002 M 1.939512451171875 0.9570000000000002 Q 1.911012451171875 0.9570000000000002 1.900512451171875 0.9330000000000002 Q 1.890012451171875 0.9090000000000001 1.891512451171875 0.8850000000000001 Q 1.899012451171875 0.8415000000000001 1.913262451171875 0.7957500000000002 Q 1.927512451171875 0.7500000000000001 1.941012451171875 0.7050000000000001 Q 1.944012451171875 0.6945000000000001 1.948512451171875 0.6780000000000002 Q 1.953012451171875 0.6615000000000002 1.957512451171875 0.6420000000000001 Q 1.947012451171875 0.6570000000000001 1.934262451171875 0.6750000000000002 Q 1.921512451171875 0.6930000000000002 1.908012451171875 0.7125000000000001 Q 1.902012451171875 0.7200000000000002 1.894512451171875 0.7200000000000002 Q 1.888512451171875 0.7200000000000002 1.885512451171875 0.7132500000000002 Q 1.882512451171875 0.7065000000000001 1.888512451171875 0.6990000000000002 Q 1.923012451171875 0.6510000000000001 1.942512451171875 0.6142500000000002 Q 1.962012451171875 0.5775000000000001 1.969512451171875 0.5550000000000002 Q 1.972512451171875 0.5250000000000001 1.962762451171875 0.5047500000000001 Q 1.953012451171875 0.48450000000000015 1.927512451171875 0.48450000000000015 Q 1.923012451171875 0.48450000000000015 1.918512451171875 0.4852500000000001 Q 1.914012451171875 0.48600000000000015 1.908012451171875 0.48750000000000016 Q 1.906512451171875 0.48750000000000016 1.905762451171875 0.48825000000000013 Q 1.905012451171875 0.48900000000000016 1.903512451171875 0.48900000000000016 Q 1.899012451171875 0.48900000000000016 1.899012451171875 0.48450000000000015 Q 1.899012451171875 0.48000000000000015 1.908012451171875 0.46800000000000014 Q 1.914012451171875 0.46350000000000013 1.930512451171875 0.4612500000000001 Q 1.947012451171875 0.45900000000000013 1.962012451171875 0.45750000000000013 Q 1.977012451171875 0.4560000000000001 1.980012451171875 0.4560000000000001 Q 2.001012451171875 0.4560000000000001 2.019012451171875 0.45900000000000013 Q 2.037012451171875 0.46200000000000013 2.049012451171875 0.47700000000000015 Q 2.056512451171875 0.48450000000000015 2.061012451171875 0.4965000000000001 Q 2.065512451171875 0.5085000000000002 2.062512451171875 0.5205000000000002 Q 2.062512451171875 0.5295000000000001 2.054262451171875 0.5512500000000001 Q 2.046012451171875 0.5730000000000002 2.036262451171875 0.5985000000000001 Q 2.026512451171875 0.6240000000000001 2.018262451171875 0.6442500000000002 Q 2.010012451171875 0.6645000000000001 2.008512451171875 0.6720000000000002 Q 1.993512451171875 0.7140000000000002 1.978512451171875 0.7650000000000001 Q 1.9635124511718751 0.8160000000000002 1.966512451171875 0.8430000000000002 Q 2.037012451171875 0.7500000000000001 2.110512451171875 0.6570000000000001 Q 2.184012451171875 0.5640000000000001 2.269512451171875 0.48450000000000015 Q 2.304012451171875 0.4500000000000001 2.340012451171875 0.4207500000000001 Q 2.376012451171875 0.3915000000000002 2.421012451171875 0.37350000000000017 Q 2.440512451171875 0.3660000000000001 2.457012451171875 0.3660000000000001 Q 2.4810124511718747 0.3660000000000001 2.499012451171875 0.3750000000000001 Q 2.517012451171875 0.3840000000000001 2.523012451171875 0.39600000000000013 Q 2.529012451171875 0.4005000000000001 2.529012451171875 0.41250000000000014 Q 2.529012451171875 0.4305000000000001 2.517012451171875 0.4305000000000001 Q 2.514012451171875 0.4305000000000001 2.5050124511718748 0.42450000000000015 Q 2.497512451171875 0.41700000000000015 2.482512451171875 0.41700000000000015 Q 2.467512451171875 0.41700000000000015 2.454012451171875 0.41700000000000015 Q 2.422512451171875 0.41700000000000015 2.375262451171875 0.4485000000000001 Q 2.328012451171875 0.48000000000000015 2.273262451171875 0.5310000000000001 Q 2.218512451171875 0.5820000000000001 2.164512451171875 0.6420000000000001 Q 2.110512451171875 0.7020000000000002 2.064762451171875 0.7620000000000001 Q 2.019012451171875 0.8220000000000002 1.989762451171875 0.8700000000000001 Q 1.960512451171875 0.9180000000000001 1.957512451171875 0.9435000000000001 Q 1.957512451171875 0.9510000000000002 1.950012451171875 0.9540000000000002 Q 1.942512451171875 0.9570000000000002 1.939512451171875 0.9570000000000002 M 2.49905126953125 0.9315000000000001 Q 2.43155126953125 0.9315000000000001 2.38205126953125 0.9000000000000001 Q 2.33255126953125 0.8685000000000002 2.33255126953125 0.8040000000000002 Q 2.33255126953125 0.7695000000000001 2.35355126953125 0.7200000000000002 Q 2.36855126953125 0.6855000000000001 2.40905126953125 0.6405000000000001 Q 2.44955126953125 0.5955000000000001 2.50355126953125 0.5527500000000001 Q 2.55755126953125 0.5100000000000001 2.61305126953125 0.4822500000000001 Q 2.66855126953125 0.4545000000000001 2.71355126953125 0.4545000000000001 Q 2.73005126953125 0.4545000000000001 2.74355126953125 0.45900000000000013 Q 2.76905126953125 0.46800000000000014 2.77880126953125 0.48750000000000016 Q 2.7885512695312498 0.5070000000000001 2.7885512695312498 0.5280000000000001 Q 2.7885512695312498 0.5475000000000001 2.78255126953125 0.5655000000000001 Q 2.77655126953125 0.5835000000000001 2.76755126953125 0.5970000000000002 Q 2.74055126953125 0.6375000000000002 2.69030126953125 0.6690000000000002 Q 2.64005126953125 0.7005000000000001 2.58830126953125 0.7185000000000001 Q 2.53655126953125 0.7365000000000002 2.50355126953125 0.7395000000000002 L 2.50055126953125 0.7395000000000002 Q 2.48105126953125 0.7395000000000002 2.48105126953125 0.7275000000000001 Q 2.48105126953125 0.7200000000000002 2.49305126953125 0.7200000000000002 Q 2.52905126953125 0.7170000000000001 2.58380126953125 0.6862500000000001 Q 2.63855126953125 0.6555000000000002 2.68055126953125 0.6225 Q 2.69855126953125 0.6075000000000002 2.72330126953125 0.5805000000000001 Q 2.74805126953125 0.5535000000000001 2.74805126953125 0.5280000000000001 Q 2.74805126953125 0.5010000000000001 2.72255126953125 0.5010000000000001 Q 2.70905126953125 0.5010000000000001 2.6948012695312498 0.5070000000000001 Q 2.68055126953125 0.5130000000000001 2.6715512695312498 0.5160000000000001 Q 2.62805126953125 0.5370000000000001 2.57555126953125 0.5812500000000002 Q 2.52305126953125 0.6255000000000002 2.48030126953125 0.6802500000000001 Q 2.43755126953125 0.7350000000000001 2.42105126953125 0.7905000000000001 Q 2.41655126953125 0.8025000000000001 2.41505126953125 0.8137500000000002 Q 2.41355126953125 0.8250000000000002 2.41355126953125 0.8355000000000001 Q 2.41355126953125 0.8715000000000002 2.43680126953125 0.8865000000000002 Q 2.46005126953125 0.9015000000000002 2.49305126953125 0.9015000000000002 Q 2.54255126953125 0.9015000000000002 2.59505126953125 0.8797500000000001 Q 2.64755126953125 0.8580000000000001 2.69705126953125 0.8235000000000001 Q 2.74655126953125 0.7890000000000001 2.78780126953125 0.7492500000000002 Q 2.82905126953125 0.7095000000000001 2.85755126953125 0.6720000000000002 Q 2.86205126953125 0.6660000000000001 2.86805126953125 0.6652500000000001 Q 2.87405126953125 0.6645000000000001 2.87555126953125 0.6675000000000002 Q 2.8815512695312497 0.6690000000000002 2.8815512695312497 0.6757500000000001 Q 2.8815512695312497 0.6825000000000001 2.87855126953125 0.6885000000000001 Q 2.83655126953125 0.7470000000000001 2.7773012695312502 0.8025000000000001 Q 2.71805126953125 0.8580000000000001 2.64680126953125 0.8947500000000002 Q 2.57555126953125 0.9315000000000001 2.49905126953125 0.9315000000000001 M 2.778005859375 0.9285000000000001 Q 2.767505859375 0.9285000000000001 2.772005859375 0.9180000000000001 Q 2.776505859375 0.9090000000000001 2.788505859375 0.8767500000000001 Q 2.800505859375 0.8445000000000001 2.816255859375 0.7995000000000001 Q 2.832005859375 0.7545000000000002 2.848505859375 0.7065000000000001 Q 2.865005859375 0.6585000000000001 2.879255859375 0.6165000000000002 Q 2.893505859375 0.5745000000000001 2.902505859375 0.5505000000000002 Q 2.905505859375 0.5415000000000001 2.908505859375 0.5242500000000001 Q 2.911505859375 0.5070000000000001 2.921255859375 0.49275000000000013 Q 2.931005859375 0.47850000000000015 2.955005859375 0.47850000000000015 Q 3.000005859375 0.47850000000000015 3.000005859375 0.4995000000000001 Q 3.000005859375 0.5070000000000001 2.992505859375 0.5250000000000001 Q 2.9745058593750002 0.5655000000000001 2.953505859375 0.6180000000000001 Q 2.932505859375 0.6705000000000001 2.916005859375 0.7170000000000001 Q 2.899505859375 0.7635000000000002 2.890505859375 0.7890000000000001 Q 2.905505859375 0.7680000000000001 2.939255859375 0.7290000000000001 Q 2.973005859375 0.6900000000000002 3.015005859375 0.6450000000000001 Q 3.057005859375 0.6000000000000001 3.1027558593749998 0.558 Q 3.148505859375 0.5160000000000001 3.188255859375 0.48975000000000013 Q 3.228005859375 0.46350000000000013 3.2565058593750003 0.46350000000000013 Q 3.292505859375 0.46350000000000013 3.292505859375 0.5025000000000002 Q 3.292505859375 0.5160000000000001 3.285005859375 0.5430000000000001 Q 3.271505859375 0.5805000000000001 3.250505859375 0.6157500000000001 Q 3.229505859375 0.6510000000000001 3.213005859375 0.6900000000000002 Q 3.184505859375 0.7605000000000002 3.180005859375 0.8040000000000002 Q 3.178505859375 0.8100000000000002 3.178505859375 0.8152500000000001 Q 3.178505859375 0.8205000000000001 3.178505859375 0.8265000000000001 Q 3.178505859375 0.8865000000000002 3.219005859375 0.8865000000000002 Q 3.241505859375 0.8865000000000002 3.279005859375 0.8595000000000002 Q 3.316505859375 0.8325000000000001 3.356255859375 0.7950000000000002 Q 3.396005859375 0.7575000000000002 3.427505859375 0.7222500000000002 Q 3.459005859375 0.6870000000000002 3.471005859375 0.6690000000000002 Q 3.475505859375 0.6645000000000001 3.480005859375 0.6645000000000001 Q 3.486005859375 0.6645000000000001 3.489755859375 0.6690000000000002 Q 3.493505859375 0.6735000000000001 3.4905058593750002 0.6810000000000002 Q 3.477005859375 0.7065000000000001 3.4447558593750003 0.7447500000000001 Q 3.412505859375 0.7830000000000001 3.3735058593750002 0.8212500000000001 Q 3.334505859375 0.8595000000000002 3.297005859375 0.8865000000000002 Q 3.274505859375 0.9015000000000002 3.241505859375 0.9135000000000001 Q 3.208505859375 0.9255000000000001 3.175505859375 0.9240000000000002 Q 3.133505859375 0.9195000000000001 3.1155058593750002 0.8947500000000002 Q 3.097505859375 0.8700000000000001 3.097505859375 0.8355000000000001 Q 3.097505859375 0.7950000000000002 3.113255859375 0.7492500000000002 Q 3.129005859375 0.7035000000000001 3.148505859375 0.6630000000000001 Q 3.168005859375 0.6225 3.180005859375 0.6015000000000001 Q 3.192005859375 0.5775000000000001 3.192005859375 0.5640000000000001 Q 3.192005859375 0.5520000000000002 3.181505859375 0.5520000000000002 Q 3.171005859375 0.5520000000000002 3.1500058593749998 0.5655000000000001 Q 3.129005859375 0.5790000000000002 3.093005859375 0.6120000000000001 Q 3.060005859375 0.6405000000000001 3.022505859375 0.6862500000000001 Q 2.985005859375 0.7320000000000002 2.949755859375 0.7800000000000001 Q 2.914505859375 0.8280000000000002 2.888255859375 0.8625000000000002 Q 2.862005859375 0.8970000000000001 2.851505859375 0.9030000000000001 Q 2.844005859375 0.9075000000000002 2.817755859375 0.9180000000000001 Q 2.791505859375 0.9285000000000001 2.778005859375 0.9285000000000001 M 3.520493408203125 0.9240000000000002 Q 3.493493408203125 0.9240000000000002 3.471743408203125 0.9120000000000001 Q 3.449993408203125 0.9000000000000001 3.439493408203125 0.8670000000000001 Q 3.437993408203125 0.8625000000000002 3.437243408203125 0.8580000000000001 Q 3.436493408203125 0.8535000000000001 3.436493408203125 0.8475000000000001 Q 3.436493408203125 0.8175000000000001 3.449993408203125 0.7725000000000002 Q 3.463493408203125 0.7275000000000001 3.482993408203125 0.6855000000000001 Q 3.473993408203125 0.6975000000000001 3.461993408203125 0.7147500000000001 Q 3.449993408203125 0.7320000000000002 3.427493408203125 0.7590000000000001 Q 3.421493408203125 0.7650000000000001 3.413993408203125 0.7650000000000001 Q 3.403493408203125 0.7650000000000001 3.403493408203125 0.7530000000000001 Q 3.403493408203125 0.7440000000000001 3.409493408203125 0.7380000000000001 Q 3.448493408203125 0.6885000000000001 3.479243408203125 0.6495000000000002 Q 3.509993408203125 0.6105000000000002 3.524993408203125 0.5835000000000001 Q 3.524993408203125 0.5805000000000001 3.533993408203125 0.5647500000000001 Q 3.542993408203125 0.5490000000000002 3.557993408203125 0.5205000000000002 Q 3.545993408203125 0.5220000000000001 3.537743408203125 0.5227500000000002 Q 3.529493408203125 0.5235000000000001 3.523493408203125 0.5235000000000001 Q 3.512993408203125 0.5235000000000001 3.505493408203125 0.5145000000000002 Q 3.497993408203125 0.5055000000000001 3.503993408203125 0.49200000000000016 Q 3.511493408203125 0.47100000000000014 3.536993408203125 0.46800000000000014 Q 3.562493408203125 0.46500000000000014 3.581993408203125 0.46350000000000013 Q 3.583493408203125 0.46050000000000013 3.587993408203125 0.46050000000000013 Q 3.605993408203125 0.42750000000000016 3.622493408203125 0.39600000000000013 Q 3.638993408203125 0.36450000000000016 3.650243408203125 0.34350000000000014 Q 3.661493408203125 0.3225000000000001 3.661493408203125 0.3210000000000002 Q 3.691493408203125 0.27300000000000013 3.700493408203125 0.2572500000000001 Q 3.709493408203125 0.24150000000000016 3.724493408203125 0.23850000000000016 Q 3.740993408203125 0.2370000000000001 3.759743408203125 0.2400000000000001 Q 3.778493408203125 0.2430000000000001 3.784493408203125 0.25350000000000017 Q 3.788993408203125 0.2595000000000002 3.788993408203125 0.2685000000000002 Q 3.788993408203125 0.28200000000000014 3.782993408203125 0.2947500000000002 Q 3.776993408203125 0.3075000000000001 3.770993408203125 0.31500000000000017 Q 3.764993408203125 0.3255000000000001 3.755243408203125 0.32925000000000015 Q 3.745493408203125 0.3330000000000001 3.737993408203125 0.3480000000000001 Q 3.722993408203125 0.37650000000000017 3.704993408203125 0.40950000000000014 Q 3.686993408203125 0.4425000000000001 3.667493408203125 0.47250000000000014 L 3.6854934082031248 0.47100000000000014 Q 3.7214934082031252 0.46800000000000014 3.753743408203125 0.46350000000000013 Q 3.785993408203125 0.45900000000000013 3.827993408203125 0.46050000000000013 Q 3.835493408203125 0.46050000000000013 3.843743408203125 0.4627500000000001 Q 3.851993408203125 0.46500000000000014 3.851993408203125 0.46950000000000014 Q 3.851993408203125 0.47550000000000014 3.812993408203125 0.48600000000000015 Q 3.797993408203125 0.49200000000000016 3.747743408203125 0.49875000000000014 Q 3.697493408203125 0.5055000000000001 3.644993408203125 0.5115000000000001 Q 3.629993408203125 0.5400000000000001 3.617993408203125 0.5587500000000001 Q 3.605993408203125 0.5775000000000001 3.601493408203125 0.5865000000000001 Q 3.5684934082031248 0.6555000000000002 3.542243408203125 0.7117500000000001 Q 3.515993408203125 0.7680000000000001 3.512993408203125 0.8040000000000002 Q 3.511493408203125 0.8100000000000002 3.511493408203125 0.8152500000000001 Q 3.511493408203125 0.8205000000000001 3.511493408203125 0.8265000000000001 Q 3.511493408203125 0.8865000000000002 3.550493408203125 0.8865000000000002 Q 3.574493408203125 0.8865000000000002 3.611993408203125 0.8602500000000002 Q 3.649493408203125 0.8340000000000002 3.688493408203125 0.7957500000000002 Q 3.727493408203125 0.7575000000000002 3.759743408203125 0.7222500000000002 Q 3.7919934082031252 0.6870000000000002 3.803993408203125 0.6690000000000002 Q 3.808493408203125 0.6645000000000001 3.812993408203125 0.6645000000000001 Q 3.818993408203125 0.6645000000000001 3.822743408203125 0.6690000000000002 Q 3.826493408203125 0.6735000000000001 3.823493408203125 0.6810000000000002 Q 3.809993408203125 0.7065000000000001 3.777743408203125 0.7447500000000001 Q 3.745493408203125 0.7830000000000001 3.705743408203125 0.8212500000000001 Q 3.665993408203125 0.8595000000000002 3.628493408203125 0.8865000000000002 Q 3.608993408203125 0.9015000000000002 3.579743408203125 0.9127500000000002 Q 3.550493408203125 0.9240000000000002 3.520493408203125 0.9240000000000002 M 4.18651318359375 0.9240000000000002 Q 4.15951318359375 0.9240000000000002 4.13851318359375 0.9120000000000001 Q 4.11751318359375 0.9000000000000001 4.10701318359375 0.8670000000000001 Q 4.10551318359375 0.8595000000000002 4.10326318359375 0.8497500000000001 Q 4.10101318359375 0.8400000000000001 4.10101318359375 0.8295000000000001 Q 4.10101318359375 0.7935000000000001 4.11076318359375 0.7485000000000002 Q 4.12051318359375 0.7035000000000001 4.13251318359375 0.6735000000000001 Q 4.12651318359375 0.6780000000000002 4.11151318359375 0.7035000000000001 Q 4.09651318359375 0.7290000000000001 4.07401318359375 0.7627500000000002 Q 4.05151318359375 0.7965000000000001 4.02376318359375 0.8302500000000002 Q 3.99601318359375 0.8640000000000001 3.96376318359375 0.8857500000000001 Q 3.93151318359375 0.9075000000000002 3.89551318359375 0.9075000000000002 Q 3.87151318359375 0.9075000000000002 3.83776318359375 0.8940000000000001 Q 3.80401318359375 0.8805000000000002 3.78901318359375 0.8565000000000002 Q 3.77401318359375 0.8325000000000001 3.77401318359375 0.7965000000000001 Q 3.77401318359375 0.7530000000000001 3.79351318359375 0.7012500000000002 Q 3.81301318359375 0.6495000000000002 3.84301318359375 0.6045000000000001 Q 3.85351318359375 0.5895000000000001 3.86701318359375 0.5685000000000001 Q 3.88051318359375 0.5475000000000001 3.89401318359375 0.5317500000000002 Q 3.9075131835937498 0.5160000000000001 3.91351318359375 0.5145000000000002 Q 3.93151318359375 0.5085000000000002 3.95551318359375 0.5085000000000002 Q 3.98101318359375 0.5085000000000002 3.99301318359375 0.5145000000000002 Q 4.00351318359375 0.5190000000000001 4.00351318359375 0.5250000000000001 Q 4.00351318359375 0.5325000000000002 3.99151318359375 0.5445000000000002 Q 3.97501318359375 0.5595000000000001 3.94651318359375 0.5895000000000001 Q 3.91801318359375 0.6195000000000002 3.89026318359375 0.6615000000000002 Q 3.86251318359375 0.7035000000000001 3.84451318359375 0.7545000000000002 Q 3.82951318359375 0.7950000000000002 3.82951318359375 0.8250000000000002 Q 3.82951318359375 0.8775000000000002 3.87151318359375 0.8775000000000002 Q 3.9075131835937498 0.8775000000000002 3.94801318359375 0.8475000000000001 Q 3.98851318359375 0.8175000000000001 4.02676318359375 0.7740000000000001 Q 4.06501318359375 0.7305000000000001 4.09576318359375 0.6877500000000001 Q 4.12651318359375 0.6450000000000001 4.14301318359375 0.6195000000000002 Q 4.15801318359375 0.5985000000000001 4.17676318359375 0.5655000000000001 Q 4.19551318359375 0.5325000000000002 4.21351318359375 0.5010000000000001 Q 4.23151318359375 0.46950000000000014 4.24201318359375 0.4545000000000001 Q 4.25251318359375 0.4545000000000001 4.27426318359375 0.45825000000000016 Q 4.29601318359375 0.46200000000000013 4.31176318359375 0.47100000000000014 Q 4.32751318359375 0.48000000000000015 4.32001318359375 0.4935000000000001 Q 4.31101318359375 0.5085000000000002 4.29226318359375 0.5400000000000001 Q 4.27351318359375 0.5715000000000001 4.2547631835937505 0.6037500000000001 Q 4.23601318359375 0.6360000000000001 4.22551318359375 0.6555000000000002 Q 4.18951318359375 0.7245000000000001 4.17901318359375 0.8040000000000002 Q 4.17751318359375 0.8100000000000002 4.17751318359375 0.8152500000000001 Q 4.17751318359375 0.8205000000000001 4.17751318359375 0.8265000000000001 Q 4.17751318359375 0.8865000000000002 4.21801318359375 0.8865000000000002 Q 4.24051318359375 0.8865000000000002 4.27801318359375 0.8595000000000002 Q 4.31551318359375 0.8325000000000001 4.35526318359375 0.7950000000000002 Q 4.3950131835937505 0.7575000000000002 4.42726318359375 0.7222500000000002 Q 4.45951318359375 0.6870000000000002 4.47151318359375 0.6690000000000002 Q 4.47451318359375 0.6645000000000001 4.48051318359375 0.6645000000000001 Q 4.48651318359375 0.6645000000000001 4.49026318359375 0.6690000000000002 Q 4.49401318359375 0.6735000000000001 4.4895131835937505 0.6810000000000002 Q 4.47601318359375 0.7065000000000001 4.44376318359375 0.7447500000000001 Q 4.41151318359375 0.7830000000000001 4.37251318359375 0.8212500000000001 Q 4.33351318359375 0.8595000000000002 4.29601318359375 0.8865000000000002 Q 4.2765131835937495 0.9015000000000002 4.24651318359375 0.9127500000000002 Q 4.21651318359375 0.9240000000000002 4.18651318359375 0.9240000000000002 M 4.6499677734375 0.9270000000000002 Q 4.6244677734375 0.9270000000000002 4.6049677734375 0.9157500000000002 Q 4.5854677734375 0.9045000000000002 4.5779677734375 0.8730000000000001 Q 4.5734677734375 0.8565000000000002 4.5734677734375 0.8400000000000001 Q 4.5734677734375 0.7950000000000002 4.5967177734375 0.7522500000000001 Q 4.6199677734375 0.7095000000000001 4.6514677734375 0.6727500000000002 Q 4.6829677734375 0.6360000000000001 4.7054677734375 0.6105000000000002 Q 4.7174677734375 0.5985000000000001 4.7332177734375 0.5790000000000002 Q 4.7489677734375 0.5595000000000001 4.7489677734375 0.5400000000000001 Q 4.7489677734375 0.5280000000000001 4.7369677734375 0.5167500000000002 Q 4.7249677734375 0.5055000000000001 4.6934677734375 0.5010000000000001 Q 4.6754677734375 0.4980000000000001 4.6597177734375 0.49575000000000014 Q 4.6439677734375 0.4935000000000001 4.6274677734375 0.4935000000000001 Q 4.5854677734375 0.5505000000000002 4.5457177734375 0.6082500000000002 Q 4.5059677734375 0.6660000000000001 4.4609677734375 0.7215000000000001 Q 4.4504677734375 0.7320000000000002 4.4429677734375 0.7320000000000002 Q 4.4339677734375 0.7320000000000002 4.4339677734375 0.7230000000000001 Q 4.4339677734375 0.7140000000000002 4.4429677734375 0.7050000000000001 Q 4.5239677734375 0.6060000000000001 4.5824677734375 0.4935000000000001 Q 4.5749677734375 0.4935000000000001 4.5599677734375 0.49275000000000013 Q 4.5449677734375 0.49200000000000016 4.5359677734375 0.49050000000000016 Q 4.5254677734375 0.48750000000000016 4.5194677734375 0.48150000000000015 Q 4.5134677734375 0.47550000000000014 4.5134677734375 0.46950000000000014 Q 4.5134677734375 0.46050000000000013 4.5209677734375 0.45900000000000013 Q 4.5404677734375 0.4530000000000001 4.5629677734375 0.4410000000000001 Q 4.5854677734375 0.42900000000000016 4.6049677734375 0.40950000000000014 Q 4.6259677734375 0.3885000000000002 4.6439677734375 0.3652500000000001 Q 4.6619677734375 0.3420000000000001 4.6724677734375 0.3300000000000002 Q 4.6829677734375 0.3225000000000001 4.6949677734375 0.3225000000000001 Q 4.7024677734375 0.3225000000000001 4.7092177734375 0.3270000000000002 Q 4.7159677734375 0.33150000000000013 4.7159677734375 0.34050000000000014 Q 4.7159677734375 0.3510000000000001 4.7069677734375 0.36750000000000016 Q 4.6934677734375 0.3885000000000002 4.6777177734375 0.41400000000000015 Q 4.6619677734375 0.4395000000000001 4.6484677734375 0.46050000000000013 Q 4.6754677734375 0.46200000000000013 4.7024677734375 0.46350000000000013 Q 4.7294677734375 0.46500000000000014 4.7579677734375 0.46500000000000014 Q 4.7729677734375 0.46500000000000014 4.7872177734375 0.4642500000000001 Q 4.8014677734375 0.46350000000000013 4.8164677734375 0.46350000000000013 Q 4.8614677734375 0.46350000000000013 4.8614677734375 0.48600000000000015 Q 4.8614677734375 0.5010000000000001 4.8457177734375 0.5227500000000002 Q 4.8299677734375 0.5445000000000002 4.8074677734375 0.5700000000000001 Q 4.7564677734375 0.6285000000000001 4.7204677734375 0.6930000000000002 Q 4.6844677734375 0.7575000000000002 4.6724677734375 0.7920000000000001 Q 4.6604677734375 0.8280000000000002 4.6604677734375 0.8460000000000001 Q 4.6604677734375 0.8820000000000001 4.6889677734375 0.8820000000000001 Q 4.7144677734375 0.8820000000000001 4.7512177734375 0.8565000000000002 Q 4.7879677734375 0.8310000000000002 4.8269677734375 0.7942500000000001 Q 4.8659677734375 0.7575000000000002 4.8974677734375 0.7222500000000002 Q 4.9289677734375 0.6870000000000002 4.9424677734374995 0.6690000000000002 Q 4.9454677734375 0.6645000000000001 4.9514677734375 0.6645000000000001 Q 4.9574677734375 0.6645000000000001 4.9619677734375 0.6697500000000001 Q 4.9664677734375005 0.6750000000000002 4.9619677734375 0.6825000000000001 Q 4.9454677734375 0.7080000000000002 4.9139677734375 0.7462500000000001 Q 4.8824677734375 0.7845000000000002 4.8434677734375 0.8220000000000002 Q 4.8044677734375 0.8595000000000002 4.7669677734375 0.8865000000000002 Q 4.7474677734375 0.9015000000000002 4.7137177734375 0.9142500000000001 Q 4.6799677734375 0.9270000000000002 4.6499677734375 0.9270000000000002 M 5.059506591796875 0.9315000000000001 Q 4.992006591796875 0.9315000000000001 4.942506591796875 0.9000000000000001 Q 4.893006591796875 0.8685000000000002 4.893006591796875 0.8040000000000002 Q 4.893006591796875 0.7695000000000001 4.914006591796875 0.7200000000000002 Q 4.929006591796875 0.6855000000000001 4.969506591796875 0.6405000000000001 Q 5.010006591796875 0.5955000000000001 5.064006591796875 0.5527500000000001 Q 5.118006591796875 0.5100000000000001 5.173506591796875 0.4822500000000001 Q 5.229006591796875 0.4545000000000001 5.274006591796875 0.4545000000000001 Q 5.290506591796875 0.4545000000000001 5.304006591796875 0.45900000000000013 Q 5.329506591796875 0.46800000000000014 5.339256591796875 0.48750000000000016 Q 5.349006591796875 0.5070000000000001 5.349006591796875 0.5280000000000001 Q 5.349006591796875 0.5475000000000001 5.343006591796875 0.5655000000000001 Q 5.337006591796875 0.5835000000000001 5.328006591796875 0.5970000000000002 Q 5.301006591796875 0.6375000000000002 5.250756591796875 0.6690000000000002 Q 5.200506591796875 0.7005000000000001 5.148756591796875 0.7185000000000001 Q 5.097006591796875 0.7365000000000002 5.064006591796875 0.7395000000000002 L 5.061006591796875 0.7395000000000002 Q 5.041506591796875 0.7395000000000002 5.041506591796875 0.7275000000000001 Q 5.041506591796875 0.7200000000000002 5.053506591796875 0.7200000000000002 Q 5.089506591796875 0.7170000000000001 5.144256591796875 0.6862500000000001 Q 5.199006591796875 0.6555000000000002 5.241006591796875 0.6225 Q 5.259006591796875 0.6075000000000002 5.283756591796875 0.5805000000000001 Q 5.308506591796875 0.5535000000000001 5.308506591796875 0.5280000000000001 Q 5.308506591796875 0.5010000000000001 5.283006591796875 0.5010000000000001 Q 5.269506591796875 0.5010000000000001 5.255256591796875 0.5070000000000001 Q 5.241006591796875 0.5130000000000001 5.232006591796875 0.5160000000000001 Q 5.188506591796875 0.5370000000000001 5.136006591796875 0.5812500000000002 Q 5.083506591796875 0.6255000000000002 5.040756591796875 0.6802500000000001 Q 4.998006591796875 0.7350000000000001 4.981506591796875 0.7905000000000001 Q 4.977006591796875 0.8025000000000001 4.975506591796875 0.8137500000000002 Q 4.974006591796875 0.8250000000000002 4.974006591796875 0.8355000000000001 Q 4.974006591796875 0.8715000000000002 4.997256591796875 0.8865000000000002 Q 5.020506591796875 0.9015000000000002 5.053506591796875 0.9015000000000002 Q 5.103006591796875 0.9015000000000002 5.155506591796875 0.8797500000000001 Q 5.208006591796875 0.8580000000000001 5.257506591796875 0.8235000000000001 Q 5.307006591796875 0.7890000000000001 5.348256591796875 0.7492500000000002 Q 5.389506591796875 0.7095000000000001 5.418006591796875 0.6720000000000002 Q 5.422506591796875 0.6660000000000001 5.428506591796875 0.6652500000000001 Q 5.434506591796875 0.6645000000000001 5.436006591796875 0.6675000000000002 Q 5.442006591796875 0.6690000000000002 5.442006591796875 0.6757500000000001 Q 5.442006591796875 0.6825000000000001 5.4390065917968755 0.6885000000000001 Q 5.397006591796875 0.7470000000000001 5.337756591796875 0.8025000000000001 Q 5.278506591796875 0.8580000000000001 5.207256591796875 0.8947500000000002 Q 5.136006591796875 0.9315000000000001 5.059506591796875 0.9315000000000001 M 5.809452392578125 1.0275 Q 5.744952392578125 1.0275 5.717202392578125 1.00425 Q 5.689452392578125 0.9810000000000001 5.689452392578125 0.9435000000000001 Q 5.689452392578125 0.9135000000000001 5.704452392578125 0.8760000000000001 Q 5.719452392578125 0.8385000000000001 5.743452392578125 0.7980000000000002 Q 5.795952392578125 0.7080000000000002 5.862702392578125 0.6097500000000001 Q 5.929452392578125 0.5115000000000001 5.993952392578125 0.41550000000000015 Q 6.028452392578125 0.3630000000000001 6.066702392578125 0.30825000000000014 Q 6.104952392578125 0.25350000000000017 6.138702392578125 0.2017500000000001 Q 6.172452392578125 0.15000000000000013 6.191952392578125 0.1080000000000001 Q 6.176952392578125 0.10650000000000015 6.161952392578125 0.10650000000000015 Q 6.146952392578125 0.10650000000000015 6.130452392578125 0.10650000000000015 Q 6.065952392578125 0.10650000000000015 5.996952392578125 0.11625000000000008 Q 5.927952392578125 0.1260000000000001 5.868702392578125 0.14700000000000013 Q 5.809452392578125 0.16800000000000015 5.773452392578125 0.2017500000000001 Q 5.737452392578125 0.23550000000000015 5.737452392578125 0.2835000000000001 Q 5.737452392578125 0.3135000000000001 5.754702392578125 0.33150000000000013 Q 5.771952392578125 0.34950000000000014 5.793702392578125 0.3600000000000001 Q 5.815452392578125 0.37050000000000016 5.825952392578125 0.3780000000000001 Q 5.837952392578125 0.3855000000000002 5.837952392578125 0.3900000000000001 Q 5.837952392578125 0.3930000000000001 5.831952392578125 0.3930000000000001 Q 5.819952392578125 0.3930000000000001 5.789202392578125 0.3772500000000001 Q 5.758452392578125 0.36150000000000015 5.732952392578125 0.3330000000000001 Q 5.707452392578125 0.3045000000000001 5.705952392578125 0.2670000000000001 Q 5.705952392578125 0.2640000000000001 5.702952392578125 0.2580000000000001 Q 5.699952392578125 0.2520000000000001 5.699952392578125 0.24750000000000016 Q 5.696952392578125 0.1905000000000001 5.728452392578125 0.15150000000000008 Q 5.759952392578125 0.11250000000000016 5.814702392578125 0.0877500000000001 Q 5.8694523925781255 0.06300000000000017 5.936952392578125 0.051750000000000074 Q 6.004452392578125 0.04050000000000009 6.071952392578125 0.04050000000000009 Q 6.146952392578125 0.04050000000000009 6.214452392578125 0.0525000000000001 Q 6.215952392578125 0.0465000000000001 6.216702392578125 0.04200000000000015 Q 6.217452392578125 0.03750000000000009 6.217452392578125 0.03300000000000014 Q 6.217452392578125 0.025500000000000078 6.214452392578125 0.019500000000000073 Q 6.212952392578125 0.01650000000000007 6.212952392578125 0.012000000000000122 Q 6.212952392578125 1.1102230246251565e-16 6.226452392578125 1.1102230246251565e-16 Q 6.233952392578125 1.1102230246251565e-16 6.242202392578125 0.005250000000000088 Q 6.250452392578125 0.010500000000000176 6.254952392578125 0.024000000000000132 Q 6.256452392578125 0.027000000000000135 6.256452392578125 0.034500000000000086 Q 6.256452392578125 0.0465000000000001 6.251952392578125 0.060000000000000164 Q 6.269952392578125 0.06600000000000017 6.284202392578125 0.07200000000000017 Q 6.298452392578125 0.07800000000000007 6.311952392578125 0.08400000000000007 Q 6.323952392578125 0.08850000000000013 6.3389523925781255 0.10275000000000012 Q 6.353952392578125 0.1170000000000001 6.353952392578125 0.1260000000000001 Q 6.353952392578125 0.13350000000000017 6.341952392578125 0.13350000000000017 Q 6.335952392578125 0.13350000000000017 6.326952392578125 0.13200000000000012 Q 6.317952392578125 0.13050000000000017 6.305952392578125 0.1260000000000001 Q 6.290952392578125 0.12150000000000016 6.274452392578125 0.11775000000000013 Q 6.257952392578125 0.1140000000000001 6.239952392578125 0.1110000000000001 Q 6.215952392578125 0.1755000000000001 6.167952392578125 0.2632500000000001 Q 6.119952392578125 0.3510000000000001 6.064452392578125 0.4335000000000001 Q 6.014952392578125 0.5085000000000002 5.964702392578125 0.5865000000000001 Q 5.914452392578125 0.6645000000000001 5.873202392578125 0.7395000000000002 Q 5.831952392578125 0.8145000000000001 5.807952392578125 0.8820000000000001 Q 5.801952392578125 0.9015000000000002 5.798952392578125 0.9172500000000001 Q 5.795952392578125 0.9330000000000002 5.795952392578125 0.9450000000000002 Q 5.795952392578125 0.9930000000000001 5.842452392578125 0.9930000000000001 Q 5.882952392578125 0.9930000000000001 5.948952392578125 0.9615000000000001 Q 6.014952392578125 0.9300000000000002 6.083952392578125 0.8835000000000002 Q 6.208452392578125 0.7965000000000001 6.320202392578125 0.6870000000000002 Q 6.4319523925781255 0.5775000000000001 6.518952392578125 0.4545000000000001 Q 6.517452392578125 0.4365000000000001 6.516702392578125 0.4162500000000001 Q 6.515952392578125 0.39600000000000013 6.515952392578125 0.37350000000000017 Q 6.515952392578125 0.33750000000000013 6.518202392578125 0.30000000000000016 Q 6.520452392578125 0.2625000000000002 6.5264523925781255 0.2340000000000001 Q 6.527952392578125 0.2220000000000001 6.540702392578125 0.2017500000000001 Q 6.553452392578125 0.1815000000000001 6.570702392578125 0.16500000000000015 Q 6.587952392578125 0.14850000000000008 6.601452392578125 0.14850000000000008 Q 6.614952392578125 0.14850000000000008 6.623202392578125 0.1665000000000001 Q 6.631452392578125 0.1845000000000001 6.631452392578125 0.22950000000000015 Q 6.631452392578125 0.27300000000000013 6.623202392578125 0.3307500000000001 Q 6.614952392578125 0.3885000000000002 6.587952392578125 0.4440000000000001 Q 6.586452392578125 0.5310000000000001 6.605202392578125 0.6127500000000001 Q 6.623952392578125 0.6945000000000001 6.659202392578125 0.7590000000000001 Q 6.694452392578125 0.8235000000000001 6.739452392578125 0.8602500000000002 Q 6.784452392578125 0.8970000000000001 6.835452392578125 0.8955000000000002 Q 6.892452392578125 0.8940000000000001 6.938202392578125 0.8542500000000002 Q 6.983952392578125 0.8145000000000001 7.017702392578125 0.7477500000000001 Q 7.051452392578125 0.6810000000000002 7.069452392578125 0.6015000000000001 Q 7.087452392578125 0.5220000000000001 7.087452392578125 0.4425000000000001 Q 7.087452392578125 0.3630000000000001 7.067202392578125 0.2917500000000002 Q 7.046952392578125 0.22050000000000014 7.003452392578125 0.17400000000000015 Q 6.955452392578125 0.12300000000000011 6.880452392578125 0.12300000000000011 Q 6.874452392578125 0.12300000000000011 6.867702392578125 0.12300000000000011 Q 6.860952392578125 0.12300000000000011 6.853452392578125 0.12450000000000017 Q 6.815952392578125 0.12900000000000011 6.787452392578125 0.15150000000000008 Q 6.7814523925781245 0.15450000000000008 6.776952392578125 0.15450000000000008 Q 6.758952392578125 0.15450000000000008 6.758952392578125 0.13950000000000018 Q 6.758952392578125 0.13350000000000017 6.764952392578125 0.12900000000000011 Q 6.847452392578125 0.07200000000000017 6.926952392578125 0.07200000000000017 Q 6.985452392578125 0.07200000000000017 7.033452392578125 0.10350000000000015 Q 7.094952392578125 0.14250000000000007 7.122702392578125 0.21900000000000008 Q 7.150452392578125 0.2955000000000001 7.150452392578125 0.3870000000000001 Q 7.150452392578125 0.48150000000000015 7.123452392578125 0.5812500000000002 Q 7.096452392578125 0.6810000000000002 7.048452392578125 0.7650000000000001 Q 7.000452392578125 0.8490000000000002 6.934452392578125 0.9007500000000002 Q 6.868452392578125 0.9525000000000001 6.791952392578125 0.9525000000000001 Q 6.733452392578125 0.9525000000000001 6.680202392578125 0.9202500000000001 Q 6.626952392578125 0.8880000000000001 6.587952392578125 0.8295000000000001 Q 6.548952392578125 0.7710000000000001 6.528702392578125 0.6945000000000001 Q 6.508452392578125 0.6180000000000001 6.514452392578125 0.5310000000000001 Q 6.466452392578125 0.5910000000000002 6.399702392578125 0.6592500000000001 Q 6.332952392578125 0.7275000000000001 6.260202392578125 0.7912500000000001 Q 6.187452392578125 0.8550000000000001 6.121452392578125 0.9030000000000001 Q 6.044952392578125 0.9570000000000002 5.967702392578125 0.9922500000000002 Q 5.890452392578125 1.0275 5.809452392578125 1.0275 M 7.309415771484375 0.9255000000000001 Q 7.267415771484375 0.9255000000000001 7.235915771484375 0.9060000000000001 Q 7.183415771484375 0.8745000000000002 7.183415771484375 0.7920000000000001 Q 7.183415771484375 0.7575000000000002 7.195415771484375 0.7125000000000001 Q 7.205915771484375 0.6750000000000002 7.232915771484375 0.6307500000000001 Q 7.259915771484375 0.5865000000000001 7.296665771484375 0.5460000000000002 Q 7.333415771484375 0.5055000000000001 7.376915771484375 0.48000000000000015 Q 7.420415771484375 0.4545000000000001 7.463915771484375 0.4545000000000001 Q 7.481915771484375 0.4545000000000001 7.4954157714843745 0.45900000000000013 Q 7.513415771484375 0.46500000000000014 7.526165771484375 0.4807500000000001 Q 7.538915771484375 0.4965000000000001 7.538915771484375 0.5205000000000002 Q 7.538915771484375 0.5460000000000002 7.526165771484375 0.5490000000000002 Q 7.513415771484375 0.5520000000000002 7.513415771484375 0.5430000000000001 Q 7.513415771484375 0.5400000000000001 7.514165771484375 0.5370000000000001 Q 7.514915771484375 0.5340000000000001 7.514915771484375 0.5325000000000002 Q 7.514915771484375 0.5205000000000002 7.508165771484375 0.5107500000000001 Q 7.501415771484375 0.5010000000000001 7.483415771484375 0.5010000000000001 Q 7.459415771484375 0.5010000000000001 7.424165771484375 0.5265000000000002 Q 7.388915771484375 0.5520000000000002 7.352165771484375 0.5947500000000001 Q 7.315415771484375 0.6375000000000002 7.287665771484375 0.6885000000000001 Q 7.259915771484375 0.7395000000000002 7.250915771484375 0.7905000000000001 Q 7.249415771484375 0.7980000000000002 7.248665771484375 0.8047500000000002 Q 7.247915771484375 0.8115000000000001 7.247915771484375 0.8190000000000002 Q 7.247915771484375 0.8535000000000001 7.263665771484375 0.8767500000000001 Q 7.279415771484375 0.9000000000000001 7.313915771484375 0.9000000000000001 Q 7.355915771484375 0.9000000000000001 7.394915771484375 0.8677500000000001 Q 7.433915771484375 0.8355000000000001 7.464665771484375 0.7905000000000001 Q 7.4954157714843745 0.7455000000000002 7.510415771484375 0.7110000000000001 Q 7.522415771484375 0.6840000000000002 7.526915771484375 0.6645000000000001 Q 7.531415771484375 0.6450000000000001 7.531415771484375 0.6315000000000002 Q 7.531415771484375 0.6195000000000002 7.529165771484375 0.6105000000000002 Q 7.526915771484375 0.6015000000000001 7.523915771484375 0.5955000000000001 Q 7.520915771484375 0.5865000000000001 7.520915771484375 0.5820000000000001 Q 7.520915771484375 0.5700000000000001 7.530665771484375 0.5625000000000001 Q 7.540415771484375 0.5550000000000002 7.550915771484375 0.5550000000000002 Q 7.559915771484375 0.5550000000000002 7.570415771484375 0.5610000000000002 Q 7.582415771484375 0.5640000000000001 7.603415771484375 0.5655000000000001 Q 7.624415771484375 0.5670000000000002 7.648415771484375 0.5670000000000002 Q 7.673915771484375 0.5670000000000002 7.700165771484375 0.5655000000000001 Q 7.726415771484375 0.5640000000000001 7.745915771484375 0.5595000000000001 Q 7.748915771484375 0.558 7.7549157714843755 0.558 Q 7.765415771484375 0.558 7.765415771484375 0.5640000000000001 Q 7.765415771484375 0.5700000000000001 7.7549157714843755 0.5745000000000001 Q 7.702415771484375 0.5985000000000001 7.6611657714843755 0.6000000000000001 Q 7.619915771484375 0.6015000000000001 7.589915771484375 0.6015000000000001 Q 7.592915771484375 0.6390000000000001 7.573415771484375 0.6817500000000001 Q 7.553915771484375 0.7245000000000001 7.532915771484375 0.7575000000000002 Q 7.507415771484375 0.7950000000000002 7.474415771484375 0.8340000000000002 Q 7.441415771484375 0.8730000000000001 7.400915771484375 0.8992500000000001 Q 7.360415771484375 0.9255000000000001 7.309415771484375 0.9255000000000001 M 7.916935546875 0.9270000000000002 Q 7.891435546875 0.9270000000000002 7.871935546875 0.9157500000000002 Q 7.852435546875 0.9045000000000002 7.844935546875 0.8730000000000001 Q 7.840435546875 0.8565000000000002 7.840435546875 0.8400000000000001 Q 7.840435546875 0.7950000000000002 7.863685546875 0.7522500000000001 Q 7.886935546875 0.7095000000000001 7.918435546875 0.6727500000000002 Q 7.949935546875 0.6360000000000001 7.972435546875 0.6105000000000002 Q 7.984435546875 0.5985000000000001 8.000185546875 0.5790000000000002 Q 8.015935546875 0.5595000000000001 8.015935546875 0.5400000000000001 Q 8.015935546875 0.5280000000000001 8.003935546875 0.5167500000000002 Q 7.991935546875 0.5055000000000001 7.960435546875 0.5010000000000001 Q 7.942435546875 0.4980000000000001 7.926685546875 0.49575000000000014 Q 7.910935546875 0.4935000000000001 7.894435546875 0.4935000000000001 Q 7.852435546875 0.5505000000000002 7.812685546875 0.6082500000000002 Q 7.772935546875 0.6660000000000001 7.727935546875 0.7215000000000001 Q 7.717435546875 0.7320000000000002 7.709935546875 0.7320000000000002 Q 7.700935546875 0.7320000000000002 7.700935546875 0.7230000000000001 Q 7.700935546875 0.7140000000000002 7.709935546875 0.7050000000000001 Q 7.790935546875 0.6060000000000001 7.849435546875 0.4935000000000001 Q 7.841935546875 0.4935000000000001 7.826935546875 0.49275000000000013 Q 7.811935546875 0.49200000000000016 7.802935546875 0.49050000000000016 Q 7.792435546875 0.48750000000000016 7.786435546875 0.48150000000000015 Q 7.780435546875 0.47550000000000014 7.780435546875 0.46950000000000014 Q 7.780435546875 0.46050000000000013 7.787935546875 0.45900000000000013 Q 7.807435546875 0.4530000000000001 7.829935546875 0.4410000000000001 Q 7.852435546875 0.42900000000000016 7.871935546875 0.40950000000000014 Q 7.892935546875 0.3885000000000002 7.910935546875 0.3652500000000001 Q 7.928935546875 0.3420000000000001 7.939435546875 0.3300000000000002 Q 7.949935546875 0.3225000000000001 7.961935546875 0.3225000000000001 Q 7.969435546875 0.3225000000000001 7.976185546875 0.3270000000000002 Q 7.982935546875 0.33150000000000013 7.982935546875 0.34050000000000014 Q 7.982935546875 0.3510000000000001 7.973935546875 0.36750000000000016 Q 7.960435546875 0.3885000000000002 7.944685546875 0.41400000000000015 Q 7.928935546875 0.4395000000000001 7.915435546875 0.46050000000000013 Q 7.942435546875 0.46200000000000013 7.969435546875 0.46350000000000013 Q 7.996435546875 0.46500000000000014 8.024935546875 0.46500000000000014 Q 8.039935546875 0.46500000000000014 8.054185546875 0.4642500000000001 Q 8.068435546875 0.46350000000000013 8.083435546875 0.46350000000000013 Q 8.128435546875 0.46350000000000013 8.128435546875 0.48600000000000015 Q 8.128435546875 0.5010000000000001 8.112685546875 0.5227500000000002 Q 8.096935546875 0.5445000000000002 8.074435546875 0.5700000000000001 Q 8.023435546875 0.6285000000000001 7.987435546875 0.6930000000000002 Q 7.951435546875 0.7575000000000002 7.939435546875 0.7920000000000001 Q 7.927435546875 0.8280000000000002 7.927435546875 0.8460000000000001 Q 7.927435546875 0.8820000000000001 7.955935546875 0.8820000000000001 Q 7.981435546875 0.8820000000000001 8.018185546875 0.8565000000000002 Q 8.054935546875 0.8310000000000002 8.093935546875 0.7942500000000001 Q 8.132935546875 0.7575000000000002 8.164435546875 0.7222500000000002 Q 8.195935546875 0.6870000000000002 8.209435546875 0.6690000000000002 Q 8.212435546875 0.6645000000000001 8.218435546875 0.6645000000000001 Q 8.224435546875 0.6645000000000001 8.228935546875 0.6697500000000001 Q 8.233435546875 0.6750000000000002 8.228935546875 0.6825000000000001 Q 8.212435546875 0.7080000000000002 8.180935546875 0.7462500000000001 Q 8.149435546875 0.7845000000000002 8.110435546875 0.8220000000000002 Q 8.071435546875 0.8595000000000002 8.033935546875 0.8865000000000002 Q 8.014435546875 0.9015000000000002 7.980685546875 0.9142500000000001 Q 7.946935546875 0.9270000000000002 7.916935546875 0.9270000000000002 M 8.285974365234376 0.9240000000000002 Q 8.222974365234375 0.9240000000000002 8.198224365234376 0.8925000000000002 Q 8.173474365234375 0.8610000000000001 8.173474365234375 0.8145000000000001 Q 8.173474365234375 0.7710000000000001 8.193724365234376 0.7050000000000001 Q 8.213974365234375 0.6390000000000001 8.246974365234376 0.5625000000000001 Q 8.279974365234375 0.48600000000000015 8.318224365234375 0.4102500000000001 Q 8.356474365234375 0.33450000000000013 8.394724365234374 0.27075000000000016 Q 8.432974365234376 0.20700000000000007 8.461474365234375 0.16800000000000015 Q 8.489974365234374 0.13050000000000017 8.522974365234376 0.09300000000000008 Q 8.555974365234375 0.055500000000000105 8.596474365234375 0.030000000000000138 Q 8.636974365234375 0.0045000000000001705 8.687974365234375 0.0045000000000001705 Q 8.722474365234374 0.0045000000000001705 8.747224365234375 0.023250000000000104 Q 8.771974365234374 0.04200000000000015 8.771974365234374 0.07950000000000013 Q 8.771974365234374 0.09450000000000014 8.766724365234374 0.1140000000000001 Q 8.761474365234376 0.13350000000000017 8.749474365234375 0.15450000000000008 Q 8.657974365234375 0.3135000000000001 8.531224365234374 0.4485000000000001 Q 8.404474365234375 0.5835000000000001 8.263474365234375 0.6990000000000002 Q 8.257474365234375 0.7215000000000001 8.252224365234374 0.7395000000000002 Q 8.246974365234376 0.7575000000000002 8.243974365234376 0.7680000000000001 Q 8.242474365234376 0.7755000000000001 8.242474365234376 0.7837500000000002 Q 8.242474365234376 0.7920000000000001 8.242474365234376 0.7995000000000001 Q 8.242474365234376 0.8355000000000001 8.254474365234374 0.8625000000000002 Q 8.266474365234375 0.8895000000000002 8.294974365234374 0.8895000000000002 Q 8.321974365234375 0.8895000000000002 8.361724365234375 0.8632500000000002 Q 8.401474365234375 0.8370000000000002 8.441974365234374 0.7987500000000002 Q 8.482474365234374 0.7605000000000002 8.515474365234375 0.7245000000000001 Q 8.548474365234375 0.6885000000000001 8.561974365234375 0.6690000000000002 Q 8.566474365234376 0.6645000000000001 8.570974365234376 0.6645000000000001 Q 8.576974365234374 0.6645000000000001 8.580724365234374 0.6705000000000001 Q 8.584474365234374 0.6765000000000001 8.579974365234374 0.6855000000000001 Q 8.564974365234375 0.7110000000000001 8.531974365234374 0.7485000000000002 Q 8.498974365234375 0.7860000000000001 8.458474365234375 0.8242500000000001 Q 8.417974365234375 0.8625000000000002 8.380474365234376 0.8910000000000001 Q 8.333974365234376 0.9240000000000002 8.285974365234376 0.9240000000000002 M 8.284474365234376 0.6390000000000001 Q 8.341474365234374 0.6000000000000001 8.402974365234375 0.5377500000000002 Q 8.464474365234375 0.47550000000000014 8.523724365234376 0.40200000000000014 Q 8.582974365234374 0.3285000000000001 8.631724365234374 0.2565000000000002 Q 8.680474365234375 0.1845000000000001 8.710474365234376 0.1260000000000001 Q 8.719474365234374 0.10950000000000015 8.723224365234374 0.09675000000000011 Q 8.726974365234375 0.08400000000000007 8.726974365234375 0.07350000000000012 Q 8.726974365234375 0.04500000000000015 8.702974365234375 0.04500000000000015 Q 8.681974365234375 0.04500000000000015 8.650474365234375 0.06750000000000012 Q 8.569474365234376 0.13050000000000017 8.500474365234375 0.22875000000000012 Q 8.431474365234376 0.3270000000000002 8.377474365234375 0.4350000000000001 Q 8.323474365234375 0.5430000000000001 8.284474365234376 0.6390000000000001 M 8.942987548828125 1.0725000000000002 Q 8.903987548828125 1.0665000000000002 8.887487548828124 1.0350000000000001 Q 8.870987548828126 1.0035 8.870987548828126 0.9570000000000002 Q 8.870987548828126 0.9015000000000002 8.886737548828124 0.8370000000000002 Q 8.902487548828125 0.7725000000000002 8.923487548828126 0.7155000000000001 Q 8.944487548828125 0.6585000000000001 8.956487548828125 0.6285000000000001 Q 8.921987548828126 0.6690000000000002 8.877737548828126 0.7170000000000001 Q 8.833487548828124 0.7650000000000001 8.785487548828126 0.8085000000000001 Q 8.737487548828126 0.8520000000000001 8.693237548828124 0.8797500000000001 Q 8.648987548828124 0.9075000000000002 8.615987548828125 0.9075000000000002 Q 8.591987548828126 0.9075000000000002 8.564987548828125 0.8932500000000001 Q 8.537987548828125 0.8790000000000001 8.521487548828125 0.8565000000000002 Q 8.498987548828126 0.8265000000000001 8.498987548828126 0.7950000000000002 Q 8.498987548828126 0.7545000000000002 8.526737548828125 0.7110000000000001 Q 8.554487548828124 0.6675000000000002 8.598737548828124 0.6262500000000002 Q 8.642987548828126 0.5850000000000002 8.693237548828124 0.5512500000000001 Q 8.743487548828124 0.5175000000000001 8.789237548828124 0.49425000000000013 Q 8.834987548828124 0.47100000000000014 8.863487548828125 0.46350000000000013 Q 8.878487548828126 0.46050000000000013 8.894987548828125 0.45750000000000013 Q 8.911487548828125 0.4545000000000001 8.929487548828124 0.4545000000000001 Q 8.951987548828125 0.4545000000000001 8.974487548828124 0.45975000000000016 Q 8.996987548828125 0.46500000000000014 9.011987548828126 0.47700000000000015 L 9.017987548828126 0.48150000000000015 Q 9.053987548828125 0.39900000000000013 9.097487548828125 0.31425000000000014 Q 9.140987548828125 0.22950000000000015 9.190487548828125 0.15900000000000014 Q 9.239987548828125 0.08850000000000013 9.295487548828126 0.04575000000000007 Q 9.350987548828124 0.0030000000000001137 9.410987548828125 0.0030000000000001137 Q 9.418487548828125 0.0030000000000001137 9.425987548828125 0.003750000000000142 Q 9.433487548828126 0.0045000000000001705 9.439487548828126 0.006000000000000116 Q 9.476987548828125 0.013500000000000068 9.492737548828124 0.03225000000000011 Q 9.508487548828125 0.051000000000000156 9.508487548828125 0.07650000000000012 Q 9.508487548828125 0.09450000000000014 9.501737548828125 0.11475000000000013 Q 9.494987548828124 0.13500000000000012 9.482987548828126 0.15450000000000008 Q 9.449987548828124 0.21300000000000008 9.396737548828124 0.27000000000000013 Q 9.343487548828126 0.3270000000000002 9.280487548828125 0.3802500000000001 Q 9.217487548828124 0.4335000000000001 9.155237548828126 0.48300000000000015 Q 9.092987548828125 0.5325000000000002 9.041987548828125 0.5760000000000001 Q 9.019487548828124 0.6285000000000001 8.996987548828125 0.6990000000000002 Q 8.974487548828124 0.7695000000000001 8.959487548828125 0.8190000000000002 Q 8.950487548828125 0.8550000000000001 8.945237548828125 0.8865000000000002 Q 8.939987548828125 0.9180000000000001 8.939987548828125 0.9450000000000002 Q 8.939987548828125 0.9945000000000002 8.957987548828125 1.0260000000000002 Q 8.972987548828126 1.0500000000000003 8.995487548828125 1.0500000000000003 Q 9.011987548828126 1.0500000000000003 9.025487548828124 1.0380000000000003 Q 9.031487548828125 1.0350000000000001 9.036737548828125 1.0305000000000002 Q 9.041987548828125 1.0260000000000002 9.049487548828125 1.0215 Q 9.058487548828126 1.0170000000000001 9.064487548828126 1.0170000000000001 Q 9.074987548828124 1.0170000000000001 9.065987548828126 1.0335 Q 9.061487548828126 1.0380000000000003 9.055487548828125 1.04475 Q 9.049487548828125 1.0515 9.041987548828125 1.0590000000000002 Q 9.031487548828125 1.0665000000000002 9.010487548828126 1.0710000000000002 Q 8.989487548828125 1.0755000000000001 8.968487548828126 1.0755000000000001 Q 8.962487548828125 1.0755000000000001 8.955737548828125 1.07475 Q 8.948987548828125 1.074 8.942987548828125 1.0725000000000002 M 9.086987548828125 0.49050000000000016 Q 9.146987548828125 0.4500000000000001 9.217487548828124 0.3892500000000001 Q 9.287987548828125 0.3285000000000001 9.349487548828126 0.25875000000000015 Q 9.410987548828125 0.18900000000000017 9.443987548828124 0.1260000000000001 Q 9.463487548828125 0.09000000000000008 9.463487548828125 0.06900000000000017 Q 9.463487548828125 0.043500000000000094 9.440987548828126 0.043500000000000094 Q 9.419987548828125 0.043500000000000094 9.385487548828126 0.06750000000000012 Q 9.284987548828125 0.14550000000000007 9.215987548828124 0.25275000000000014 Q 9.146987548828125 0.3600000000000001 9.086987548828125 0.49050000000000016 M 8.573987548828125 0.8715000000000002 Q 8.581487548828125 0.8805000000000002 8.593487548828126 0.8805000000000002 Q 8.615987548828125 0.8805000000000002 8.646737548828124 0.8610000000000001 Q 8.677487548828125 0.8415000000000001 8.687987548828126 0.8310000000000002 Q 8.764487548828125 0.7695000000000001 8.841737548828124 0.6982500000000001 Q 8.918987548828126 0.6270000000000001 8.986487548828125 0.5550000000000002 Q 8.992487548828125 0.5415000000000001 8.996987548828125 0.52875 Q 9.001487548828125 0.5160000000000001 9.007487548828125 0.5040000000000001 Q 8.984987548828125 0.4950000000000001 8.954987548828125 0.4950000000000001 Q 8.894987548828125 0.4950000000000001 8.822987548828126 0.5340000000000001 Q 8.750987548828125 0.5730000000000002 8.693987548828124 0.6255000000000002 Q 8.675987548828125 0.6405000000000001 8.645237548828124 0.6772500000000001 Q 8.614487548828125 0.7140000000000002 8.588987548828126 0.7575000000000002 Q 8.563487548828125 0.8010000000000002 8.563487548828125 0.8370000000000002 Q 8.563487548828125 0.8565000000000002 8.573987548828125 0.8715000000000002" fill="#ffffff" fill-rule="nonzero"></path></g><g><path d=" M 6.004525909423828 1.7726531250000002 L 6.004525909423828 1.4698406250000002 L 5.976400909423829 1.4454656250000002 L 5.976400909423829 1.4421843750000003 L 6.039213409423828 1.4164031250000002 L 6.0420259094238284 1.4164031250000002 L 6.0420259094238284 1.5814031250000002 L 6.0439009094238285 1.5814031250000002 Q 6.061713409423828 1.5664031250000001 6.078354034423828 1.5593718750000003 Q 6.094994659423828 1.5523406250000003 6.1142134094238285 1.5523406250000003 Q 6.138119659423828 1.5523406250000003 6.156400909423828 1.5645281250000003 Q 6.174682159423829 1.5767156250000003 6.185229034423828 1.5989812500000002 Q 6.195775909423828 1.6212468750000002 6.195775909423828 1.6521843750000003 Q 6.195775909423828 1.6906218750000002 6.181244659423828 1.7175750000000003 Q 6.166713409423828 1.7445281250000002 6.141869659423828 1.7585906250000003 Q 6.117025909423829 1.7726531250000002 6.086088409423828 1.7726531250000002 Q 6.066869659423828 1.7726531250000002 6.050229034423828 1.7691375000000003 Q 6.033588409423828 1.7656218750000001 6.019057159423828 1.7604656250000001 L 6.007338409423828 1.7726531250000002 L 6.004525909423828 1.7726531250000002 M 6.088432159423828 1.5846843750000001 Q 6.0771821594238284 1.5846843750000001 6.065229034423829 1.5882000000000003 Q 6.053275909423828 1.5917156250000002 6.0420259094238284 1.5987468750000002 L 6.0420259094238284 1.7309343750000001 Q 6.055150909423828 1.7412468750000003 6.068510284423828 1.7457000000000003 Q 6.081869659423829 1.7501531250000002 6.098275909423828 1.7501531250000002 Q 6.114682159423828 1.7501531250000002 6.128275909423828 1.7414812500000003 Q 6.141869659423828 1.7328093750000002 6.150072784423828 1.7135906250000001 Q 6.158275909423828 1.6943718750000003 6.158275909423828 1.6629656250000002 Q 6.158275909423828 1.6221843750000002 6.137885284423828 1.6034343750000002 Q 6.117494659423828 1.5846843750000001 6.088432159423828 1.5846843750000001 M 6.347183303833008 1.7726531250000002 Q 6.301714553833008 1.7726531250000002 6.275464553833008 1.7449968750000002 Q 6.249214553833008 1.7173406250000003 6.249214553833008 1.6718718750000001 Q 6.249214553833008 1.6367156250000001 6.263042678833008 1.6097625000000002 Q 6.276870803833008 1.5828093750000003 6.2996051788330085 1.5675750000000002 Q 6.322339553833008 1.5523406250000003 6.349058303833008 1.5523406250000003 Q 6.386089553833008 1.5523406250000003 6.407417678833008 1.5781218750000001 Q 6.428745803833008 1.6039031250000002 6.428745803833008 1.6521843750000003 L 6.426402053833008 1.6545281250000001 L 6.286245803833008 1.6545281250000001 Q 6.286714553833008 1.6760906250000003 6.294683303833009 1.695075 Q 6.302652053833008 1.7140593750000002 6.320230178833008 1.7257781250000002 Q 6.337808303833008 1.7374968750000002 6.367339553833008 1.7374968750000002 Q 6.393120803833008 1.7374968750000002 6.427808303833008 1.7187468750000001 L 6.429214553833008 1.7187468750000001 L 6.429214553833008 1.7234343750000003 Q 6.418433303833008 1.7435906250000002 6.397105178833008 1.7581218750000003 Q 6.3757770538330085 1.7726531250000002 6.347183303833008 1.7726531250000002 M 6.341558303833009 1.5729656250000001 Q 6.319058303833009 1.5729656250000001 6.304761428833008 1.5886687500000003 Q 6.290464553833008 1.6043718750000002 6.287183303833008 1.6329656250000002 L 6.393120803833008 1.6329656250000002 Q 6.387964553833008 1.6010906250000003 6.375073928833008 1.5870281250000002 Q 6.3621833038330085 1.5729656250000001 6.341558303833009 1.5729656250000001 M 6.557187423706055 1.7726531250000002 Q 6.5351561737060555 1.7726531250000002 6.519218673706055 1.7689031250000002 Q 6.503281173706055 1.765153125 6.486874923706055 1.7567156250000002 L 6.486874923706055 1.7042156250000002 L 6.493437423706055 1.7042156250000002 L 6.508437423706055 1.7299968750000003 Q 6.522968673706055 1.7557781250000002 6.555781173706055 1.7557781250000002 Q 6.574531173706055 1.7557781250000002 6.585078048706055 1.7468718750000003 Q 6.595624923706056 1.7379656250000002 6.595624923706056 1.7224968750000003 Q 6.595624923706056 1.7089031250000002 6.589062423706055 1.7014031250000001 Q 6.582499923706055 1.6939031250000003 6.570546798706055 1.6880437500000003 Q 6.5585936737060555 1.6821843750000003 6.542187423706055 1.6746843750000002 Q 6.518281173706055 1.6639031250000003 6.505390548706055 1.6510125000000002 Q 6.492499923706055 1.6381218750000002 6.492499923706055 1.6146843750000002 Q 6.492499923706055 1.5973406250000002 6.502343673706055 1.583278125 Q 6.512187423706055 1.5692156250000002 6.527421798706055 1.5607781250000001 Q 6.542656173706055 1.5523406250000003 6.559062423706055 1.5523406250000003 Q 6.576406173706055 1.5523406250000003 6.590937423706055 1.5565593750000002 Q 6.6054686737060555 1.5607781250000001 6.620468673706055 1.5682781250000002 L 6.620468673706055 1.6193718750000001 L 6.613906173706055 1.6193718750000001 L 6.598437423706055 1.5945281250000003 Q 6.590468673706055 1.5818718750000003 6.5810936737060555 1.5762468750000003 Q 6.571718673706055 1.5706218750000003 6.560937423706055 1.5706218750000003 Q 6.544999923706055 1.5706218750000003 6.535390548706055 1.5785906250000001 Q 6.525781173706055 1.5865593750000002 6.525781173706055 1.6006218750000003 Q 6.525781173706055 1.6165593750000002 6.537265548706055 1.6247625 Q 6.548749923706056 1.6329656250000002 6.570781173706055 1.6432781250000001 Q 6.583906173706056 1.6498406250000002 6.597265548706055 1.6564031250000002 Q 6.610624923706055 1.6629656250000002 6.619296798706055 1.6749187500000002 Q 6.6279686737060555 1.6868718750000002 6.6279686737060555 1.7089031250000002 Q 6.6279686737060555 1.7295281250000003 6.616718673706055 1.7438250000000002 Q 6.6054686737060555 1.7581218750000003 6.589062423706055 1.7653875 Q 6.572656173706055 1.7726531250000002 6.557187423706055 1.7726531250000002 M 6.75734230041504 1.7726531250000002 Q 6.73671730041504 1.7726531250000002 6.7217173004150395 1.7604656250000001 Q 6.70671730041504 1.7482781250000001 6.70671730041504 1.7262468750000002 L 6.70671730041504 1.5790593750000002 L 6.66827980041504 1.5790593750000002 L 6.66827980041504 1.5762468750000003 L 6.708123550415039 1.5570281250000002 L 6.74140480041504 1.5054656250000003 L 6.744217300415039 1.5054656250000003 L 6.744217300415039 1.5570281250000002 L 6.80609230041504 1.5570281250000002 L 6.80609230041504 1.5790593750000002 L 6.744217300415039 1.5790593750000002 L 6.744217300415039 1.7182781250000003 Q 6.744217300415039 1.7304656250000001 6.754998550415039 1.736090625 Q 6.765779800415039 1.741715625 6.7803110504150395 1.741715625 Q 6.789217300415039 1.741715625 6.796951675415039 1.7407781250000003 Q 6.8046860504150395 1.7398406250000003 6.81031105041504 1.7384343750000002 L 6.81171730041504 1.7384343750000002 L 6.81171730041504 1.7431218750000002 Q 6.80702980041504 1.7539031250000001 6.79320167541504 1.7632781250000003 Q 6.779373550415039 1.7726531250000002 6.75734230041504 1.7726531250000002 M 7.046562881469727 1.7679656250000002 L 6.9729691314697275 1.5790593750000002 L 6.941562881469728 1.5645281250000003 L 6.941562881469728 1.5570281250000002 L 7.053594131469728 1.5570281250000002 L 7.053594131469728 1.5645281250000003 L 7.015156631469727 1.5785906250000001 L 7.015156631469727 1.5814031250000002 L 7.063906631469727 1.7112468750000003 L 7.0657816314697275 1.7112468750000003 L 7.132344131469727 1.5570281250000002 L 7.142187881469727 1.5570281250000002 L 7.208750381469728 1.7098406250000002 L 7.210625381469727 1.7098406250000002 L 7.257969131469728 1.5842156250000001 L 7.257969131469728 1.5814031250000002 L 7.224219131469727 1.5645281250000003 L 7.224219131469727 1.5570281250000002 L 7.316094131469727 1.5570281250000002 L 7.316094131469727 1.5645281250000003 L 7.281406631469728 1.5809343750000002 L 7.203125381469728 1.7679656250000002 L 7.193281631469728 1.7679656250000002 L 7.125781631469728 1.6151531250000002 L 7.056406631469728 1.7679656250000002 L 7.046562881469727 1.7679656250000002 M 7.383121032714845 1.7726531250000002 Q 7.361089782714845 1.7726531250000002 7.346558532714845 1.7597625000000001 Q 7.332027282714845 1.7468718750000003 7.332027282714845 1.7239031250000003 Q 7.332027282714845 1.700934375 7.349136657714845 1.6840593750000001 Q 7.366246032714845 1.6671843750000002 7.406558532714845 1.6578093750000003 L 7.451089782714845 1.6474968750000003 L 7.451089782714845 1.6132781250000001 Q 7.451089782714845 1.5973406250000002 7.438199157714845 1.5858562500000002 Q 7.425308532714845 1.5743718750000002 7.408902282714845 1.5743718750000002 Q 7.391089782714845 1.5743718750000002 7.384058532714845 1.5839812500000001 Q 7.377027282714845 1.5935906250000003 7.377027282714845 1.6095281250000002 L 7.377027282714845 1.6226531250000003 L 7.374683532714845 1.6249968750000001 L 7.350308532714845 1.6249968750000001 Q 7.343277282714845 1.6249968750000001 7.340699157714845 1.6226531250000003 Q 7.338121032714845 1.6203093750000002 7.338121032714845 1.6118718750000003 Q 7.338121032714845 1.6015593750000001 7.344214782714845 1.5907781250000002 Q 7.350308532714845 1.5799968750000002 7.362964782714845 1.572028125 Q 7.376089782714845 1.5635906250000002 7.390386657714845 1.5579656250000002 Q 7.404683532714845 1.5523406250000003 7.421089782714845 1.5523406250000003 Q 7.437496032714845 1.5523406250000003 7.453199157714845 1.5570281250000002 Q 7.468902282714845 1.5617156250000002 7.478746032714845 1.5727312500000001 Q 7.488589782714845 1.583746875 7.488589782714845 1.6034343750000002 L 7.488589782714845 1.7365593750000001 Q 7.491871032714845 1.7398406250000003 7.497964782714845 1.7421843750000001 Q 7.504058532714845 1.7445281250000002 7.514839782714845 1.7445281250000002 L 7.532652282714845 1.7445281250000002 L 7.534058532714845 1.7454656250000002 L 7.534058532714845 1.7468718750000003 Q 7.528433532714845 1.7571843750000002 7.517417907714845 1.7649187500000003 Q 7.506402282714845 1.7726531250000002 7.490464782714845 1.7726531250000002 Q 7.475933532714845 1.7726531250000002 7.466792907714845 1.7649187500000003 Q 7.457652282714845 1.7571843750000002 7.453902282714845 1.7445281250000002 L 7.451089782714845 1.7445281250000002 Q 7.438902282714845 1.7567156250000002 7.420855407714845 1.7646843750000003 Q 7.402808532714845 1.7726531250000002 7.383121032714845 1.7726531250000002 M 7.368589782714845 1.7145281250000002 Q 7.368589782714845 1.7435906250000002 7.403746032714845 1.7435906250000002 Q 7.414996032714845 1.7435906250000002 7.426011657714845 1.7412468750000003 Q 7.437027282714845 1.7389031250000002 7.451089782714845 1.7328093750000002 L 7.451089782714845 1.6634343750000002 Q 7.413589782714845 1.6704656250000003 7.396246032714845 1.6782000000000001 Q 7.378902282714845 1.6859343750000002 7.373746032714845 1.6948406250000003 Q 7.368589782714845 1.7037468750000002 7.368589782714845 1.7145281250000002 M 7.641408691406252 1.7726531250000002 Q 7.620783691406252 1.7726531250000002 7.605783691406251 1.7604656250000001 Q 7.590783691406251 1.7482781250000001 7.590783691406251 1.7262468750000002 L 7.590783691406251 1.5790593750000002 L 7.552346191406252 1.5790593750000002 L 7.552346191406252 1.5762468750000003 L 7.592189941406251 1.5570281250000002 L 7.625471191406252 1.5054656250000003 L 7.628283691406251 1.5054656250000003 L 7.628283691406251 1.5570281250000002 L 7.690158691406252 1.5570281250000002 L 7.690158691406252 1.5790593750000002 L 7.628283691406251 1.5790593750000002 L 7.628283691406251 1.7182781250000003 Q 7.628283691406251 1.7304656250000001 7.639064941406251 1.736090625 Q 7.649846191406251 1.741715625 7.664377441406251 1.741715625 Q 7.673283691406251 1.741715625 7.681018066406251 1.7407781250000003 Q 7.688752441406251 1.7398406250000003 7.694377441406251 1.7384343750000002 L 7.695783691406252 1.7384343750000002 L 7.695783691406252 1.7431218750000002 Q 7.691096191406252 1.7539031250000001 7.677268066406252 1.7632781250000003 Q 7.663439941406251 1.7726531250000002 7.641408691406252 1.7726531250000002 M 7.835941772460939 1.7726531250000002 Q 7.790473022460939 1.7726531250000002 7.764223022460939 1.7449968750000002 Q 7.737973022460939 1.7173406250000003 7.737973022460939 1.6718718750000001 Q 7.737973022460939 1.6367156250000001 7.751801147460939 1.6097625000000002 Q 7.765629272460939 1.5828093750000003 7.7883636474609395 1.5675750000000002 Q 7.811098022460939 1.5523406250000003 7.837816772460939 1.5523406250000003 Q 7.874848022460939 1.5523406250000003 7.896176147460939 1.5781218750000001 Q 7.917504272460939 1.6039031250000002 7.917504272460939 1.6521843750000003 L 7.915160522460939 1.6545281250000001 L 7.775004272460939 1.6545281250000001 Q 7.775473022460939 1.6760906250000003 7.7834417724609395 1.695075 Q 7.791410522460939 1.7140593750000002 7.808988647460939 1.7257781250000002 Q 7.826566772460939 1.7374968750000002 7.856098022460939 1.7374968750000002 Q 7.881879272460939 1.7374968750000002 7.916566772460939 1.7187468750000001 L 7.917973022460939 1.7187468750000001 L 7.917973022460939 1.7234343750000003 Q 7.907191772460939 1.7435906250000002 7.885863647460939 1.7581218750000003 Q 7.8645355224609395 1.7726531250000002 7.835941772460939 1.7726531250000002 M 7.8303167724609395 1.5729656250000001 Q 7.8078167724609395 1.5729656250000001 7.793519897460939 1.5886687500000003 Q 7.779223022460939 1.6043718750000002 7.775941772460939 1.6329656250000002 L 7.881879272460939 1.6329656250000002 Q 7.876723022460939 1.6010906250000003 7.863832397460939 1.5870281250000002 Q 7.850941772460939 1.5729656250000001 7.8303167724609395 1.5729656250000001 M 7.970477142333986 1.7679656250000002 L 7.970477142333986 1.7604656250000001 L 8.000008392333987 1.7454656250000002 L 8.000008392333987 1.6057781250000003 L 7.971883392333986 1.5814031250000002 L 7.971883392333986 1.5781218750000001 L 8.030008392333986 1.5523406250000003 L 8.032820892333985 1.5523406250000003 L 8.037039642333987 1.5921843750000002 L 8.038914642333987 1.5921843750000002 Q 8.049695892333986 1.5748406250000002 8.058836517333987 1.56616875 Q 8.067977142333985 1.5574968750000002 8.075945892333985 1.5549187500000001 Q 8.083914642333987 1.5523406250000003 8.091883392333987 1.5523406250000003 Q 8.095633392333987 1.5523406250000003 8.100555267333986 1.5537468750000003 Q 8.105477142333987 1.5551531250000001 8.108758392333986 1.5565593750000002 Q 8.113914642333986 1.5589031250000003 8.118367767333986 1.5621843750000002 Q 8.122820892333985 1.5654656250000003 8.122820892333985 1.5696843750000002 Q 8.122820892333985 1.5739031250000002 8.120945892333987 1.5781218750000001 L 8.111570892333987 1.6010906250000003 L 8.108289642333986 1.6010906250000003 L 8.090477142333986 1.5940593750000003 Q 8.085320892333986 1.5917156250000002 8.080399017333987 1.5912468750000002 Q 8.075477142333986 1.5907781250000002 8.070789642333986 1.5907781250000002 Q 8.051102142333987 1.5907781250000002 8.037508392333987 1.6109343750000003 L 8.037508392333987 1.7454656250000002 L 8.070789642333986 1.7604656250000001 L 8.070789642333986 1.7679656250000002 L 7.970477142333986 1.7679656250000002 M 8.356245574951172 1.7726531250000002 Q 8.335620574951172 1.7726531250000002 8.320620574951173 1.7604656250000001 Q 8.305620574951172 1.7482781250000001 8.305620574951172 1.7262468750000002 L 8.305620574951172 1.5790593750000002 L 8.267183074951172 1.5790593750000002 L 8.267183074951172 1.5762468750000003 L 8.307026824951173 1.5570281250000002 L 8.340308074951173 1.5054656250000003 L 8.343120574951172 1.5054656250000003 L 8.343120574951172 1.5570281250000002 L 8.404995574951172 1.5570281250000002 L 8.404995574951172 1.5790593750000002 L 8.343120574951172 1.5790593750000002 L 8.343120574951172 1.7182781250000003 Q 8.343120574951172 1.7304656250000001 8.353901824951173 1.736090625 Q 8.364683074951172 1.741715625 8.379214324951173 1.741715625 Q 8.388120574951172 1.741715625 8.395854949951172 1.7407781250000003 Q 8.403589324951172 1.7398406250000003 8.409214324951172 1.7384343750000002 L 8.410620574951173 1.7384343750000002 L 8.410620574951173 1.7431218750000002 Q 8.405933074951172 1.7539031250000001 8.392104949951172 1.7632781250000003 Q 8.378276824951172 1.7726531250000002 8.356245574951172 1.7726531250000002 M 8.458439483642577 1.7679656250000002 L 8.458439483642577 1.7604656250000001 L 8.487970733642578 1.7454656250000002 L 8.487970733642578 1.6057781250000003 L 8.459845733642577 1.5814031250000002 L 8.459845733642577 1.5781218750000001 L 8.517970733642578 1.5523406250000003 L 8.520783233642577 1.5523406250000003 L 8.525001983642579 1.5921843750000002 L 8.526876983642579 1.5921843750000002 Q 8.537658233642578 1.5748406250000002 8.546798858642578 1.56616875 Q 8.555939483642577 1.5574968750000002 8.563908233642577 1.5549187500000001 Q 8.571876983642579 1.5523406250000003 8.579845733642578 1.5523406250000003 Q 8.583595733642579 1.5523406250000003 8.588517608642578 1.5537468750000003 Q 8.593439483642578 1.5551531250000001 8.596720733642577 1.5565593750000002 Q 8.601876983642578 1.5589031250000003 8.606330108642577 1.5621843750000002 Q 8.610783233642577 1.5654656250000003 8.610783233642577 1.5696843750000002 Q 8.610783233642577 1.5739031250000002 8.608908233642579 1.5781218750000001 L 8.599533233642578 1.6010906250000003 L 8.596251983642578 1.6010906250000003 L 8.578439483642578 1.5940593750000003 Q 8.573283233642577 1.5917156250000002 8.568361358642578 1.5912468750000002 Q 8.563439483642577 1.5907781250000002 8.558751983642578 1.5907781250000002 Q 8.539064483642578 1.5907781250000002 8.525470733642578 1.6109343750000003 L 8.525470733642578 1.7454656250000002 L 8.558751983642578 1.7604656250000001 L 8.558751983642578 1.7679656250000002 L 8.458439483642577 1.7679656250000002 M 8.697020416259765 1.4956218750000003 Q 8.684832916259765 1.4956218750000003 8.676864166259765 1.4874187500000002 Q 8.668895416259765 1.4792156250000001 8.668895416259765 1.4674968750000001 Q 8.668895416259765 1.4553093750000001 8.676864166259765 1.4473406250000003 Q 8.684832916259765 1.4393718750000002 8.697020416259765 1.4393718750000002 Q 8.709207916259764 1.4393718750000002 8.717176666259764 1.4473406250000003 Q 8.725145416259764 1.4553093750000001 8.725145416259764 1.4674968750000001 Q 8.725145416259764 1.4792156250000001 8.717176666259764 1.4874187500000002 Q 8.709207916259764 1.4956218750000003 8.697020416259765 1.4956218750000003 M 8.650145416259765 1.7679656250000002 L 8.650145416259765 1.7604656250000001 L 8.679676666259764 1.7454656250000002 L 8.679676666259764 1.6057781250000003 L 8.651551666259765 1.5814031250000002 L 8.651551666259765 1.5781218750000001 L 8.714364166259765 1.5523406250000003 L 8.717176666259764 1.5523406250000003 L 8.717176666259764 1.7454656250000002 L 8.746707916259764 1.7604656250000001 L 8.746707916259764 1.7679656250000002 L 8.650145416259765 1.7679656250000002 M 8.798733673095702 1.8757781250000003 L 8.798733673095702 1.8682781250000002 L 8.828264923095702 1.853278125 L 8.828264923095702 1.6057781250000003 L 8.800139923095701 1.5814031250000002 L 8.800139923095701 1.5781218750000001 L 8.858264923095701 1.5523406250000003 L 8.8610774230957 1.5523406250000003 L 8.8648274230957 1.5809343750000002 L 8.868108673095701 1.5809343750000002 Q 8.885921173095701 1.5659343750000003 8.902327423095702 1.5591375000000003 Q 8.918733673095701 1.5523406250000003 8.937952423095702 1.5523406250000003 Q 8.961858673095701 1.5523406250000003 8.9801399230957 1.5645281250000003 Q 8.998421173095702 1.5767156250000003 9.008968048095701 1.5989812500000002 Q 9.019514923095702 1.6212468750000002 9.019514923095702 1.6521843750000003 Q 9.019514923095702 1.6906218750000002 9.005218048095701 1.7175750000000003 Q 8.990921173095701 1.7445281250000002 8.9665461730957 1.7585906250000003 Q 8.942171173095701 1.7726531250000002 8.913108673095701 1.7726531250000002 Q 8.886858673095702 1.7726531250000002 8.865764923095702 1.7679656250000002 L 8.865764923095702 1.853278125 L 8.899046173095702 1.8682781250000002 L 8.899046173095702 1.8757781250000003 L 8.798733673095702 1.8757781250000003 M 8.912171173095702 1.5846843750000001 Q 8.900921173095702 1.5846843750000001 8.888968048095702 1.5882000000000003 Q 8.877014923095702 1.5917156250000002 8.865764923095702 1.5987468750000002 L 8.865764923095702 1.7304656250000001 Q 8.879827423095701 1.741715625 8.8943586730957 1.7459343750000003 Q 8.908889923095701 1.7501531250000002 8.926702423095701 1.7501531250000002 Q 8.949202423095702 1.7501531250000002 8.965608673095701 1.7311687500000001 Q 8.9820149230957 1.7121843750000003 8.9820149230957 1.6676531250000002 Q 8.9820149230957 1.6385906250000002 8.972639923095702 1.6203093750000002 Q 8.963264923095702 1.6020281250000001 8.947327423095702 1.5933562500000003 Q 8.9313899230957 1.5846843750000001 8.912171173095702 1.5846843750000001" fill="#ffffff" fill-rule="nonzero"></path></g><g clip-path="url(#SvgjsClipPath1002)"><g clip-path="url(#a629d0dd3-1a37-4e3e-abf1-d6bfaafc6c7e56583248-2bf5-47a9-bc63-76c7250b1265)"><path d=" M 10.35992942606007 1.7524177034114476 C 10.834484263125121 1.7524177034114476 11.219161891631092 1.363611439883329 11.219161891631092 0.8840546026952883 C 11.219161891631092 0.40441836867989833 10.834484263125121 0.015612105151780152 10.35992942606007 0.015612105151780152 C 9.885374588995017 0.015612105151780152 9.500696960489046 0.40441836867989833 9.500696960489046 0.8840546026952883 C 9.500696960489046 1.363611439883329 9.885374588995017 1.7524177034114476 10.35992942606007 1.7524177034114476 Z" fill="none" transform="matrix(1,0,0,1,0,0)" fill-rule="nonzero" stroke-dasharray="none" stroke-miterlimit="4" stroke-linejoin="miter" stroke-linecap="butt" stroke-width="0.1175073044765398" stroke="#ffffff"></path></g><g clip-path="url(#a629d0dd3-1a37-4e3e-abf1-d6bfaafc6c7e56583248-2bf5-47a9-bc63-76c7250b1265)"><path d=" M 9.933330272713821 1.445072584743417 C 9.877434906260115 1.3459853442118481 9.854251032674203 1.2210147379645009 9.865922366294507 1.077782861426881 C 9.906970526033948 0.5719456743863167 10.356674156138759 0.1888559824273273 10.361199775297653 0.1850449347145746 L 10.373982664500845 0.1743263630224577 L 10.38636856956729 0.18552131567866856 C 10.390735395071486 0.18949115704611916 10.826544580390221 0.5877456430287703 10.849569660321436 1.0946149888248717 C 10.858144517675129 1.2827854696420333 10.80812451644525 1.4375298861452603 10.704749847236835 1.5419367141092128 C 10.61487263867775 1.632766684596484 10.487917111746679 1.6815163365887784 10.347225933684227 1.679055034940959 C 10.206534755621774 1.6766731301204887 10.08140535571973 1.6236360494513473 9.994783417081957 1.5297096026974648 C 9.971094555335098 1.5039689787261388 9.950472288268543 1.475566734936801 9.933330272713821 1.445072584743417 Z M 10.373029902572656 0.22474334838908144 C 10.300143615066261 0.29080150874346045 9.939682018901742 0.638162628395394 9.903794652939988 1.0807205440387944 C 9.889344430362467 1.2579342626817924 9.930551383756605 1.4045802027954202 10.022889893963507 1.504620205255177 C 10.10236611813987 1.5908451597562054 10.217809105105335 1.6395154149211506 10.34786110830302 1.641738526086923 C 10.477992508328052 1.643961637252695 10.595023431840497 1.5992612234552008 10.677596132283472 1.515894554738737 C 10.773428102893732 1.4190304253729402 10.819795850065555 1.273972421806293 10.811697373675955 1.096282322199201 C 10.791451182701957 0.6527716446276125 10.443613682085928 0.2932628103912797 10.373029902572656 0.22474334838908128 Z" fill="none" transform="matrix(1,0,0,1,0,0)" fill-rule="nonzero" stroke-dasharray="none" stroke-miterlimit="10" stroke-linejoin="miter" stroke-linecap="butt" stroke-width="0.0587536522382699" stroke="#ffffff"></path></g></g></g><defs><clipPath id="SvgjsClipPath1002"><path d=" M 9.442022705078125 -0.043146182880336226 h 1.835857730021887 v 1.8542579907606727 h -1.835857730021887 Z"></path></clipPath><clipPath id="a629d0dd3-1a37-4e3e-abf1-d6bfaafc6c7e56583248-2bf5-47a9-bc63-76c7250b1265"><path d=" M 9.442022705078125 1.8111713556497175 L 11.277915543869362 1.8111713556497175 L 11.277915543869362 -0.043062150259140744 L 9.442022705078125 -0.043062150259140744 Z"></path></clipPath></defs></svg>